<svg width="512" height="512" viewBox="0 0 512 512" fill="none" xmlns="http://www.w3.org/2000/svg">
<g clip-path="url(#clip0_2001_22)">
<path d="M512 0H0V512H512V0Z" fill="#F9F8F4"/>
<mask id="mask0_2001_22" style="mask-type:luminance" maskUnits="userSpaceOnUse" x="106" y="157" width="300" height="198">
<path d="M406 157H106V355H406V157Z" fill="white"/>
</mask>
<g mask="url(#mask0_2001_22)">
<path d="M332.916 243.867C332.304 242.869 330.771 242.171 329.177 242.171C328.167 242.171 326.274 242.46 324.997 244.38C323.452 246.806 322.453 251.779 322.453 257.047C322.453 268.667 326.279 278.314 333.521 284.95C340.114 290.992 349.327 294.319 359.467 294.319C382.63 294.319 406.005 277.73 406.005 240.682C406 196.104 358.387 157 304.099 157C288.124 157 271.997 160.49 257.452 167.099L256 167.759L254.548 167.099C240.003 160.49 223.876 157 207.901 157C153.619 157 106 196.104 106 240.677C106 277.73 129.37 294.313 152.538 294.313C162.678 294.313 171.891 290.987 178.484 284.945C185.726 278.308 189.552 268.662 189.552 257.042C189.552 251.774 188.553 246.806 187.009 244.374C185.732 242.455 183.838 242.166 182.828 242.166C181.24 242.166 179.701 242.864 179.09 243.862C178.937 244.107 178.479 244.859 179.308 246.512C180.16 247.968 182.239 252.281 182.239 259.125C182.239 276.607 170.931 287.9 153.433 287.9C134.042 287.9 113.319 275.571 113.319 240.977C113.319 220.441 123.721 200.941 142.599 186.065C160.626 171.86 184.646 163.718 208.496 163.718C219.275 163.718 229.907 165.31 240.102 168.457L249.26 171.282L241.395 176.756C218.036 193.028 204.637 216.22 204.637 240.382C204.637 258.83 212.911 277.436 226.763 290.147L231.107 294.16L229.486 297.323C210.859 333.722 192.63 348.565 166.559 348.565C153.433 348.565 142.654 345.403 132.634 338.603C131.449 337.817 130.325 337.414 129.31 337.414C127.307 337.414 126.068 339.099 125.615 340.544C125.571 340.691 125.511 340.849 125.451 341.018C125.075 342.038 124.6 343.303 128.087 345.713C136.558 351.614 149.913 355 164.725 355C169.915 355 180.722 355 191.823 349.765C216.59 338.09 228.149 313.955 233.083 303.649C233.754 302.247 234.311 301.086 234.764 300.224L235.626 298.605L238.726 301.037C240.8 302.793 246.755 306.288 255.28 306.626C255.361 306.632 255.438 306.637 255.52 306.637C255.602 306.637 255.678 306.648 255.76 306.648C255.836 306.648 255.913 306.648 255.989 306.648C256.065 306.648 256.142 306.653 256.218 306.648C256.3 306.648 256.377 306.637 256.458 306.637C256.54 306.637 256.617 306.637 256.699 306.637C265.224 306.293 271.178 302.798 273.252 301.042L276.352 298.61L277.214 300.23C277.667 301.091 278.224 302.253 278.901 303.654C283.834 313.96 295.394 338.09 320.161 349.771C331.262 355.005 342.068 355.005 347.259 355.005C362.076 355.005 375.426 351.625 383.896 345.719C387.384 343.309 386.909 342.044 386.532 341.024C386.467 340.855 386.412 340.697 386.369 340.549C385.916 339.104 384.677 337.419 382.674 337.419C381.659 337.419 380.534 337.823 379.35 338.608C369.33 345.403 358.551 348.571 345.425 348.571C319.353 348.571 301.124 333.728 282.497 297.329L280.876 294.166L285.221 290.152C299.072 277.441 307.346 258.836 307.346 240.388C307.346 216.226 293.948 193.034 270.588 176.762L262.724 171.287L271.882 168.462C282.077 165.316 292.709 163.724 303.488 163.724C327.338 163.724 351.363 171.87 369.39 186.07C388.268 200.946 398.67 220.452 398.67 240.982C398.67 275.582 377.947 287.906 358.556 287.906C341.059 287.906 329.75 276.613 329.75 259.13C329.75 252.286 331.83 247.973 332.681 246.517C333.511 244.87 333.052 244.118 332.899 243.867H332.916ZM232.745 289.667L226.872 282.524C217.556 271.247 211.296 253.955 211.296 239.494C211.296 234.471 212.016 228.969 213.501 222.66L215.198 216.831L220.836 218.145C232.941 220.604 242.978 228.708 251.459 242.896L252.873 245.258L250.58 248.709C249.369 250.967 248.119 253.399 246.94 255.826L232.739 289.678L232.745 289.667ZM272.706 293.168C271.915 293.85 271.413 294.144 271.031 294.411C268.607 296.134 265.868 298.081 262.642 299.123C260.497 299.815 258.265 300.181 256 300.262C253.735 300.186 251.503 299.815 249.358 299.123C246.132 298.081 243.393 296.134 240.969 294.411C240.587 294.144 240.085 293.85 239.294 293.168L238.486 292.372L238.89 291.537C239.021 291.265 239.163 290.834 239.31 290.398C239.501 289.836 239.703 289.269 239.872 288.915L249.953 264.054L255.995 252.047L262.036 264.054L272.117 288.915C272.291 289.274 272.488 289.836 272.679 290.398C272.826 290.829 272.968 291.265 273.099 291.537L273.503 292.372L272.695 293.168H272.706ZM298.499 222.655C299.984 228.964 300.704 234.471 300.704 239.488C300.704 253.95 294.444 271.241 285.128 282.518L279.255 289.662L265.054 255.809C263.875 253.383 262.626 250.95 261.414 248.693L259.122 245.241L260.535 242.88C269.022 228.691 279.053 220.593 291.159 218.129L296.796 216.814L298.494 222.644L298.499 222.655ZM289.854 206.148L293.052 210.702L286.492 212.408C276.827 215.004 268.1 221.22 259.291 233.201L256 237.678L252.709 233.201C243.9 221.215 235.179 215.004 225.508 212.408L218.948 210.702L222.146 206.148C229.35 194.157 240.445 183.845 254.237 176.326L255.995 175.366L257.752 176.326C271.544 183.845 282.639 194.157 289.843 206.148H289.854Z" fill="#342627"/>
</g>
</g>
<defs>
<clipPath id="clip0_2001_22">
<rect width="512" height="512" fill="white"/>
</clipPath>
</defs>
</svg>
