<?xml version="1.0"?>
<svg id="Warstwa_2" data-name="Warstwa 2" xmlns="http://www.w3.org/2000/svg" viewBox="0 0 773.15 35.08" fill="#f9f8f4">
  <g id="Warstwa_1" data-name="Warstwa 1">
    <g>
      <path d="M532.46,34l-1.25-.19-.4-.47-.05-.24v-.99l.15-.99-.1-1.18-.05-.85.1-1.42-.05-1.18-.05-1.42v-.9l.15-1.13v-.71l.05-1.04v-1.61l.05-.94.05-1.09-.1-1.23v-6.66l.05-1.7v-1.56l-.05-1.18-.05-.61-.25-.47-1.05-.19h-.95l-1.05-.09-4.65-.05-1.8-.09h-2l-1-.09h-.7l-.6-.05-.5-.42-.1-.38-.05-.52.1-.94.4-.66.7-.14.9.05h1.7l1.7.05,1.1-.05h9.1l.85.14.7-.09h.7l.4.05h1.3l2.05.09h1.2l.95.05h4l3.75.14h.9l.45.14.2.33.15,1.09-.15.94-.25.38-.65.28h-.65l-1-.09h-1.4l-1.15-.05h-7.95l-1.05.33-.4.52-.1.43v.52l-.15,1.32v2.03l-.05,1.79v1.84l-.05.52.05.66.05,1.13v1.09l-.05,1.04v1.94l-.1,1.09-.05,1.32v5.95l-.05,1.32v.94l-.05.75.05.47-.05,1.09-.2,1.23-.4.57-.45.09-.8-.05Z"></path>
      <path d="M1.65,34l-.45-.05h-.6l-.45-.42-.1-.43-.05-1.09v-5.52l.05-1.42v-2.6l.1-.85-.1-1.18v-.61l.05-.85v-1.37l.1-1.32.05-1.46v-4.63l.1-.99.05-1.46V2.6l.1-.9.15-.47.25-.28.5-.19h.65l1.6-.05,2.05.09,1.7.05,2.2-.05.85.05h3.75l2.15.05,1.45.05,1,.09.95.05,1.7.24.85.14,1.05.24.6.24,1.2.66,1.5,1.09.5.61.7.99.7,1.98.2.9.15.99.05.9-.05,1.42-.15,1.27-.25,1.23-.35.9-.3.71-.4.66-.4.71-.4.43-.55.52-.5.38-.9.61-1.3.71-1.05.28-1.6.19-1.1.05h-1.15l-1.45-.09h-1.2l-1.05.05-1.5-.14h-6.85l-1.3-.05-.55.14-.35.28-.15.33-.1.94-.15,1.37v1.18l-.05,1.04v1.09l-.1.9.05.99-.1,1.46v1.42l-.05,1.51v.99l-.3.42-.9.09-.75-.05ZM19.91,17l.85-.14.75-.09.9-.33.65-.38.75-.52.55-.57.5-.66.25-.71.15-.71.15-1.04.05-1.13v-1.04l-.15-.94-.4-1.37-.5-.99-.55-.61-.9-.66-.9-.43-2.15-.33-.55-.05h-1.5l-1.5.05-.6.05h-.8l-.75.05h-.5l-.7-.05-2.35.09h-2.95l-1-.05-1.55.05-.7.05-.15.14-.15.61-.15.9v2.5l-.1,1.18v2.17l-.05.9.05,1.23-.05,1.04.15.8.45.47.3.09h.4l.7.09,3.65.14h1.45l2.25.09h1.1l1.85.09h1.55l.85.05,1.35-.05Z"></path>
      <path d="M78.59,34l-1.2.09-1.25-.05-10.45-.09-1.35-.05-.7.05h-1.4l-1.6.05-1.65-.05h-4.35l-.8-.05-1.75.05-1.55-.28-.4-.47-.15-.66-.05-.9-.1-.85v-.76l.05-.85.05-.99-.05-1.32.05-1.23v-.57l.05-.9v-5.91l.05-1.28v-.94l-.1-2.03v-1.09l-.05-1.65.05-.9v-2.29l.1-1.27.05-1.18.1-.8.05-1.32.05-1.71.15-.57.1-.28.35-.33,1.2-.14.95.05,2.4-.05h1.65l1.4.19,2.05-.05,3.5.05,3.1-.05h8.2l1.15-.05h1.9l1.55.05,1.2.09.6.33.3.66.05.94-.15.61-.25.38-.6.24-1.3.09-3.05-.09h-1.45l-.85-.09-6.8-.05h-4.3l-1.35-.05h-1.35l-1,.05-2,.05h-1.1l-.6.09h-.55l-.65.09-.55.38-.25.94-.2,1.71v3.38l-.1.66.2.71.7.28h.65l.5.05.95.14h1.5l2.8.09h.8l1.2.09,1.3-.05h10.65l.55.09.45.19.3.66-.1.75-.05.61-.05.47-.2.33-.4.19-.35.05-.7-.05h-6.3l-1.5-.05-1.9.05-1.45-.09h-1.25l-1.1-.09h-1.4l-1.2.05-.75.09-1.2-.09-.8.05-.3-.05-.45.05-.6.33-.2.38-.05.33-.15,1.09-.05,1.37v3.64l.05.61v1.28l-.05,1.7-.1,1.46v1.09l.15.57.05.57.35.43.75.24.55.19.65-.05,1.05.05.85.05.65-.09h1.55l.45.05,1.95-.05,1.5-.09h3.65l6.5.14h1.45l.9.05h4.8l.4.24.4.66-.05.9-.1.71-.3.38-.25.19-.3.05-.55.05-.6.09h-.45l-1-.14Z"></path>
      <path d="M595.94,34.14l-1.2.09-1.25-.05-10.45-.09-1.35-.05-.7.05h-1.4l-1.6.05-1.65-.05h-4.35l-.8-.05-1.75.05-1.55-.28-.4-.47-.15-.66-.05-.9-.1-.85v-.76l.05-.85.05-.99-.05-1.32.05-1.23v-.57l.05-.9v-5.91l.05-1.28v-.94l-.1-2.03v-1.09l-.05-1.65.05-.9v-2.29l.1-1.27.05-1.18.1-.8.05-1.32.05-1.71.15-.57.1-.28.35-.33,1.2-.14.95.05,2.4-.05h1.65l1.4.19,2.05-.05,3.5.05,3.1-.05h8.2l1.15-.05h1.9l1.55.05,1.2.09.6.33.3.66.05.94-.15.61-.25.38-.6.24-1.3.09-3.05-.09h-1.45l-.85-.09-6.8-.05h-4.3l-1.35-.05h-1.35l-1,.05-2,.05h-1.1l-.6.09h-.55l-.65.09-.55.38-.25.94-.2,1.71v3.38l-.1.66.2.71.7.28h.65l.5.05.95.14h1.5l2.8.09h.8l1.2.09,1.3-.05h10.65l.55.09.45.19.3.66-.1.75-.05.61-.05.47-.2.33-.4.19-.35.05-.7-.05h-6.3l-1.5-.05-1.9.05-1.45-.09h-1.25l-1.1-.09h-1.4l-1.2.05-.75.09-1.2-.09-.8.05-.3-.05-.45.05-.6.33-.2.38-.05.33-.15,1.09-.05,1.37v3.64l.05.61v1.28l-.05,1.7-.1,1.46v1.09l.15.57.05.57.35.43.75.24.55.19.65-.05,1.05.05.85.05.65-.09h1.55l.45.05,1.95-.05,1.5-.09h3.65l6.5.14h1.45l.9.05h4.8l.4.24.4.66-.05.9-.1.71-.3.38-.25.19-.3.05-.55.05-.6.09h-.45l-1-.14Z"></path>
      <path d="M721.17,34.14l-1.2.09-1.25-.05-10.45-.09-1.35-.05-.7.05h-1.4l-1.6.05-1.65-.05h-4.35l-.8-.05-1.75.05-1.55-.28-.4-.47-.15-.66-.05-.9-.1-.85v-.76l.05-.85.05-.99-.05-1.32.05-1.23v-.57l.05-.9v-5.91l.05-1.28v-.94l-.1-2.03v-1.09l-.05-1.65.05-.9v-2.29l.1-1.27.05-1.18.1-.8.05-1.32.05-1.71.15-.57.1-.28.35-.33,1.2-.14.95.05,2.4-.05h1.65l1.4.19,2.05-.05,3.5.05,3.1-.05h8.2l1.15-.05h1.9l1.55.05,1.2.09.6.33.3.66.05.94-.15.61-.25.38-.6.24-1.3.09-3.05-.09h-1.45l-.85-.09-6.8-.05h-4.3l-1.35-.05h-1.35l-1,.05-2,.05h-1.1l-.6.09h-.55l-.65.09-.55.38-.25.94-.2,1.71v3.38l-.1.66.2.71.7.28h.65l.5.05.95.14h1.5l2.8.09h.8l1.2.09,1.3-.05h10.65l.55.09.45.19.3.66-.1.75-.05.61-.05.47-.2.33-.4.19-.35.05-.7-.05h-6.3l-1.5-.05-1.9.05-1.45-.09h-1.25l-1.1-.09h-1.4l-1.2.05-.75.09-1.2-.09-.8.05-.3-.05-.45.05-.6.33-.2.38-.05.33-.15,1.09-.05,1.37v3.64l.05.61v1.28l-.05,1.7-.1,1.46v1.09l.15.57.05.57.35.43.75.24.55.19.65-.05,1.05.05.85.05.65-.09h1.55l.45.05,1.95-.05,1.5-.09h3.65l6.5.14h1.45l.9.05h4.8l.4.24.4.66-.05.9-.1.71-.3.38-.25.19-.3.05-.55.05-.6.09h-.45l-1-.14Z"></path>
      <path d="M113.36,34l-1.25-.19-.4-.47-.05-.24v-.99l.15-.99-.1-1.18-.05-.85.1-1.42-.05-1.18-.05-1.42v-.9l.15-1.13v-.71l.05-1.04v-1.61l.05-.94.05-1.09-.1-1.23v-6.66l.05-1.7v-1.56l-.05-1.18-.05-.61-.25-.47-1.05-.19h-.95l-1.05-.09-4.65-.05-1.8-.09h-2l-1-.09h-.7l-.6-.05-.5-.42-.1-.38-.05-.52.1-.94.4-.66.7-.14.9.05h1.7l1.7.05,1.1-.05h9.1l.85.14.7-.09h.7l.4.05h1.3l2.05.09h1.2l.95.05h4l3.75.14h.9l.45.14.2.33.15,1.09-.15.94-.25.38-.65.28h-.65l-1-.09h-1.4l-1.15-.05h-7.95l-1.05.33-.4.52-.1.43v.52l-.15,1.32v2.03l-.05,1.79v1.84l-.05.52.05.66.05,1.13v1.09l-.05,1.04v1.94l-.1,1.09-.05,1.32v5.95l-.05,1.32v.94l-.05.75.05.47-.05,1.09-.2,1.23-.4.57-.45.09-.8-.05Z"></path>
      <path d="M149.29,34.23l-.6-.33-.3-.66-.1-1.13-.05-1.89v-3.35l.05-.99v-1.46l-.1-1.09v-.47l.05-.66-.2-1.23.05-1.51v-1.13l.05-1.04.05-.9-.05-1.51.05-1.79v-2.5l.05-1.42v-.8l-.05-1.23.15-1.46v-1.94l.05-1.37-.05-.76.15-.33.45-.33,1.05-.19,1.35.09h1.35l.95-.05h1.3l1-.05,1.4.05.75-.05,1.2.05,1.05-.05.35.05.8-.05h1.25l.9-.09,1.2.09h3.85l1.15.19.8.19,1,.38,1.05.47,1.3.94.9.99.5.66.6.99.6,1.51.4,1.46.2,1.51v1.56l-.15.99-.35,1.23-.3.75-.4.76-.45.75-.9,1.13-.8.71-1.3.85-1.65.66-1.05.33-.75.09-.85.05-.5.14.3.8.45.66.6.8,1.1,1.42.65.8.4.47.9,1.18,1.3,1.51,1.5,2.03,1.1,1.42.85,1.18-.05.52-.2.33-.7.38-.7.47-.3.14-.25.05-.4-.09-.7-.61-1.05-1.18-1.15-1.32-1-1.51-.95-1.09-.65-.8-.85-.99-.55-.71-.4-.47-.55-.75-.65-.8-.4-.66-.4-.47-.75-.99-.55-.66-1.1-.85-.9-.24-2.7-.09-.9-.09-2.55.05h-1.35l-.85.05-.5.14-.6.33-.25.99-.05,1.51v2.03l.05,1.89-.05,1.65.1,1.51-.05,1.18.05.9-.05.99-.15.71-.35.33-1.15.19-1.05-.05ZM158.24,16.86l1.6.05h2.65l4.4-.28,2.45-.19,1.45-.42.95-.71.65-.71.4-.8.35-.9.1-.61.15-.52.05-.76v-1.18l-.1-.85-.05-.71-.25-.85-.4-.8-.7-.85-.8-.71-1.5-.66-1.65-.33-2.45-.14h-1.65l-1.4-.09-3-.09-1,.05-2.75.19-1.6-.05h-.95l-1,.19-.15.24-.1.52-.1.8-.05.99.05,1.42.05,1.7v2.79l-.1,1.56.1.99.1.76.4.61,1.2.14.8.14.7.05,1.1-.05.85.14,1.2-.05Z"></path>
      <path d="M201.42,34.09l-.65-.24-.15-.38-.15-.47v-6.42l.05-1.23-.05-.76v-.8l.1-.71.05-.33-.05-.28-.05-.57.05-.99-.1-1.18.05-1.04v-1.09l.1-1.18v-5.19l.05-1.84-.1-1.98.05-1.42v-1.23l.1-1.42-.05-.9.05-.71.25-.57.5-.19.7-.09.7.09.6.05.45.24.15.33v.85l.05.94v.8l.1,1.27.05,1.28-.1.71v.52l-.05,1.28-.05,1.04.05,1.23.15.99v5.43l-.15,1.04v1.84l.1.94-.1,1.42v2.08l.05,1.42-.05.9-.05,1.13v.66l.05,1.04v1.28l-.05.9v.85l-.3.61-.7.19h-.8l-.85-.14Z"></path>
      <path d="M242.64,34.8l-1-.09-1.15-.33-1.05-.28-.45-.14-.5-.14-1-.47-.7-.38-1.45-.8-1.3-.66-.75-.61-.55-.52-.6-.38-1-.94-1.1-1.23-.65-.8-.6-.99-.75-1.51-.5-1.13-.2-.71-.5-1.42-.3-1.23v-.94l-.1-.75.05-.76v-1.18l.15-1.23.15-1.27.3-1.13.4-1.13.25-.8.15-.52.2-.47.45-.8.75-1.13,1.4-1.89.7-.71.75-.71,1.1-.9.85-.61.65-.42,1.6-.85.85-.43.95-.38,1.55-.38,1.25-.28,1-.09,1.75-.24h.9l1.7.05,1,.09.7.14.7.09.9.28.95.09,1,.38.9.33,1.85.9,1.3.8.95.47.6.61.5.43.6.57.6.52.35.43.2.52.15.43-.15.43-.4.52-.5.42-.65.14-.75-.05-.7-.38-.7-.85-.85-.8-.7-.57-1-.76-1.1-.57-1.2-.52-.7-.28-.75-.19-1.1-.33-.95-.19-.85-.09-.8-.14-2.85.14-.9.14-.5.19-.9.24-1.15.33-1.15.43-1.15.61-1.5.99-1.45,1.27-.55.61-1.2,1.42-.6.85-.5,1.04-.5,1.18-.25.9-.25,1.09-.25.85.05.66-.1.99v1.56l.1,1.42.2.9.1.61.25.61.25.75.55.9.2.57.4.71.85,1.23.9,1.09.65.61.75.57,1.05.66.7.57.55.28.45.28,1.5.71,1.05.33,1.5.38.95.14.9.09,1.4-.05.9.05.95-.19,1-.24.7-.24.8-.09,1.05-.38.8-.38,1.15-.75,2.05-1.37.4-.42,1.6-1.18.85-.28.8.24.8.57.3.57-.05.38-.15.47-.25.28-2,1.89-.6.38-.55.42-.85.43-1.15.75-1.25.61-1,.38-.8.28-1.7.43-1.5.19-.45.05-.6.14-.9.14h-2.15l-.8-.09Z"></path>
      <path d="M311.48,34l-.65-.14-.3-.47-.15-1.04-.05-.99.05-1.04-.05-1.37.1-1.13.05-1.7.05-1.94-.05-1.27v-1.04l-.1-.8-.05-.8-.1-.75-.2-.33-.35-.38-.8-.14-1.15-.09-1.2.05-.85-.09h-1.05l-1.15-.09-.85.05-.55-.05-10-.09-1.65-.09-2,.09-1.95.05-1,.38-.15.33-.05,1.04-.1.94-.1,1.23v1.23l.1,1.89v5.62l-.05,1.09-.15.76-.1.75-.25.28-.4.09-1.1.05-.85-.09-.55-.33-.2-.94.1-1.37v-1.04l-.1-.52.05-1.23.1-1.32-.1-.8v-4.53l.05-1.23.05-2.08v-1.04l-.05-1.51v-3.12l-.05-1.51.1-.94v-2.41l.05-1.09v-1.04l.05-1.42v-1.13l.05-.8.05-1.04.1-.38.2-.28.35-.05.7.05h1.35l.3.14.25.76.15,1.27.05,1.37-.15,1.42.05,1.61v.85l-.05,1.94v3.4l.1.57.2.38.55.38.6.19.75.14,1-.05,1.15.05h2.55l1,.05,1.2-.05,1.6-.05,5.65.09h1.95l1.25.05.95.05.95-.05,1.15.09,1.4-.09.7-.24.35-.42.15-.38.1-1.04.05-1.09v-1.28l.1-1.32-.1-1.37-.05-1.75v-2.93l.2-1.42.15-.71.45-.33,1-.14,1.15.09.35.19.35.76v.94l.05.99v1.98l.1,1.37-.1.99-.05,1.46v.85l.05,1.09v3.59l-.15,1.28.05.61.05.9-.1.8v.71l.1.99v1.32l.05,1.46v1.18l-.05.8-.1.9-.05.9v6.37l-.05.28-.35.33-.7.05h-.7l-.7-.14Z"></path>
      <path d="M352.06,35.04l-2.15-.09-1.3-.28-1.05-.19-.85-.28-.7-.19-1.5-.57-.9-.52-1.1-.52-1.05-.61-.8-.52-.8-.66-2-1.98-.35-.47-.55-.61-.45-.71-.6-.8-.5-1.09-.45-.85-.35-1.09-.25-.94-.2-.8-.2-.94-.05-1.09-.15-1.23v-1.61l.2-1.23.2-.85.2-1.13.3-.94.2-.57.9-2.27.7-1.04.25-.43.4-.61,2.05-2.36,1.45-1.32.85-.57,1.3-.71.85-.52.7-.33.7-.24,1.2-.38,1.35-.38,1.15-.28,1.1-.09,1-.14h.5l.55.05.9.05,1.5.14,1.65.24.95.28.95.19,1.35.52,1.55.52.9.52.65.28,2.4,1.7,1.2,1.13.6.61.5.42.7.94.65,1.18.8,1.46.6,1.79.25.85.35,1.42.15.66.05,1.23.1,1.84-.05.94-.15,1.13-.45,2.03-.6,2.12-.75,1.7-.7,1.04-.6.9-.8,1.04-1.75,1.65-2.9,1.89-.95.57-1.1.47-.9.33-1.6.61-1,.24-.85.09-.7.09-.45.05-.8.14-1.45-.05ZM353.51,31.68l.85-.19.4-.05.55-.05,1.15-.28,1.8-.61,1.2-.57.85-.47.65-.47.45-.24,1.1-.94,1.35-1.27.75-1.04.9-1.32.55-1.13.3-.94.35-1.09.15-1.23.15-.99v-1.37l-.1-.9-.05-1.28-.2-1.04-.25-.9-.4-1.13-.5-1.23-.6-1.13-.95-1.37-1.7-1.51-1.1-.9-.95-.61-.8-.43-1.1-.57-.65-.24-1-.33-1.45-.33-.9-.14-1.15-.09-1.45.09-2.2.09-.95.14-1.1.24-1.45.57-1.2.52-.55.33-.5.43-1.3.9-.8.75-.55.61-.95,1.28-.75,1.18-.6,1.09-.45.76-.35,1.18-.4,1.61-.2,2.17.1,1.18v.85l.05.85.35,1.32.45,1.27.55,1.18.35.71.6.94.8,1.04,1.2,1.23,1.05.76,1,.71,1.25.75,1.1.52,1.25.52,1.15.28.45.09,1.3.19,1.95.19,1.15-.14Z"></path>
      <path d="M392.68,34.23l-.6-.33-.3-.66-.1-1.13-.05-1.89v-3.35l.05-.99v-1.46l-.1-1.09v-.47l.05-.66-.2-1.23.05-1.51v-1.13l.05-1.04.05-.9-.05-1.51.05-1.79v-2.5l.05-1.42v-.8l-.05-1.23.15-1.46v-1.94l.05-1.37-.05-.76.15-.33.45-.33,1.05-.19,1.35.09h1.35l.95-.05h1.3l1-.05,1.4.05.75-.05,1.2.05,1.05-.05.35.05.8-.05h1.25l.9-.09,1.2.09h3.85l1.15.19.8.19,1,.38,1.05.47,1.3.94.9.99.5.66.6.99.6,1.51.4,1.46.2,1.51v1.56l-.15.99-.35,1.23-.3.75-.4.76-.45.75-.9,1.13-.8.71-1.3.85-1.65.66-1.05.33-.75.09-.85.05-.5.14.3.8.45.66.6.8,1.1,1.42.65.8.4.47.9,1.18,1.3,1.51,1.5,2.03,1.1,1.42.85,1.18-.05.52-.2.33-.7.38-.7.47-.3.14-.25.05-.4-.09-.7-.61-1.05-1.18-1.15-1.32-1-1.51-.95-1.09-.65-.8-.85-.99-.55-.71-.4-.47-.55-.75-.65-.8-.4-.66-.4-.47-.75-.99-.55-.66-1.1-.85-.9-.24-2.7-.09-.9-.09-2.55.05h-1.35l-.85.05-.5.14-.6.33-.25.99-.05,1.51v2.03l.05,1.89-.05,1.65.1,1.51-.05,1.18.05.9-.05.99-.15.71-.35.33-1.15.19-1.05-.05ZM401.64,16.86l1.6.05h2.65l4.4-.28,2.45-.19,1.45-.42.95-.71.65-.71.4-.8.35-.9.1-.61.15-.52.05-.76v-1.18l-.1-.85-.05-.71-.25-.85-.4-.8-.7-.85-.8-.71-1.5-.66-1.65-.33-2.45-.14h-1.65l-1.4-.09-3-.09-1,.05-2.75.19-1.6-.05h-.95l-1,.19-.15.24-.1.52-.1.8-.05.99.05,1.42.05,1.7v2.79l-.1,1.56.1.99.1.76.4.61,1.2.14.8.14.7.05,1.1-.05.85.14,1.2-.05Z"></path>
      <path d="M501.54,33.86l-.3-.71-.25-.57-.6-1.04-.65-1.18-.25-.9-.8-1.51-.75-1.7-.6-1.09-.4-.75-.55-.43-.7-.33-.9-.19-.85-.05-2-.24h-1.5l-.65-.05h-1.05l-.8.05-.6-.09h-.7l-.5.05h-1.9l-.8.09-1.4.24-1,.28-.4.33-.4.57-.5.85-.35.71-.25.47-.55,1.09-.4.75-.75,1.65-.55,1.18-.45.85-.55.94-.5.8-.4.24-.55-.05-.9-.28-.9-.33-.45-.61.05-.47.45-1.04.5-1.09.65-1.18.5-.99.8-1.7.55-1.04.35-.94.6-.99.3-.66.45-.85.45-.99.35-.8.45-1.09.45-.85.65-1.09.15-.33.35-.61.45-.99.55-1.09.3-.8.4-.85.75-1.42.45-.9.65-1.23.4-.71.4-.8.65-1.13.55-1.28.3-.66.2-.47.3-.52.5-.85.3-.52.7-.94.35-.24.5-.09.5.09.35.33.55.8.5.71.35.61.4.8.5,1.09.5,1.28.8,2.08.35.66.35.99.8,1.46.55,1.37.35.75.5.99.7,1.56.5.75.3.52.25.8.55,1.13.6,1.51.7,1.42.65,1.28.5,1.13.45,1.04.55,1.09.45,1.04.5.9.6,1.37.55,1.09.3.61.2.71v.61l-.25.47-.8.42-.8.24h-.7l-.55-.57ZM492.94,20.12h.7l.65-.19.2-.14v-.52l-.4-.9-.25-.8-.3-.71-.45-1.13-.5-.94-.55-1.32-.4-.8-.55-1.04-.4-.85-.35-.76-.25-.57-.45-.9-.4-.66-.5-.24-.45.38-.35.66-.35.71-.25.76-.4.9-.35.57-.3.71-.4.8-.45.71-.45.9-.65,1.18-.6,1.46-.65,1.23-.1.99.45.28.45.14.8.09h1.2l1.45-.09,1.15.09.9-.05.8.05h.8l1.25.05.7-.05Z"></path>
      <path d="M641.42,34.19l-1-.05h-1.05l-.7-.05h-1.2l-1,.05h-2.45l-.6-.05h-4.5l-.65-.09-.95.09h-.95l-1.25.05-1.15-.05-.9.05-1.45-.14-1.2-.24-.2-.43-.1-.57-.05-1.09.15-1.13v-3.97l.05-2.12-.05-1.09-.1-1.7.1-.94v-.99l.05-.9v-7.08l.05-1.51v-1.23l.1-.94-.05-.47.05-.52v-1.04l.05-1.51-.1-1.46.1-1.13.1-.47.15-.24.4-.19h.9l1.35.19.5.57v.52l-.05.52.05.85-.05,1.18v2.6l-.05,1.04.1,1.42v1.18l-.1.57-.05.71v1.32l.05,1.89v1.98l-.05.8-.05,1.46-.1,1.28.1,1.51v4.39l-.05.85-.05,1.13.05.99.3.61.3.19.25.09,1.25.14h1.95l1.35-.09.8.05.8-.05h.85l1.05.05,1.55-.05.9-.05,1.7.05,3.75.05h1.1l1.15.05h.55l.6-.05.45.14.25.14.3.47.05.42-.05.66-.05.85-.2.24-.3.24-1,.09-1.1.05-.75-.09Z"></path>
      <path d="M666.19,34.14l-.65-.24-.15-.38-.15-.47v-6.42l.05-1.23-.05-.76v-.8l.1-.71.05-.33-.05-.28-.05-.57.05-.99-.1-1.18.05-1.04v-1.09l.1-1.18v-5.19l.05-1.84-.1-1.98.05-1.42v-1.23l.1-1.42-.05-.9.05-.71.25-.57.5-.19.7-.09.7.09.6.05.45.24.15.33v.85l.05.94v.8l.1,1.27.05,1.28-.1.71v.52l-.05,1.28-.05,1.04.05,1.23.15.99v5.43l-.15,1.04v1.84l.1.94-.1,1.42v2.08l.05,1.42-.05.9-.05,1.13v.66l.05,1.04v1.28l-.05.9v.85l-.3.61-.7.19h-.8l-.85-.14Z"></path>
      <path d="M745.23,34.23l-.6-.33-.3-.66-.1-1.13-.05-1.89v-3.35l.05-.99v-1.46l-.1-1.09v-.47l.05-.66-.2-1.23.05-1.51v-1.13l.05-1.04.05-.9-.05-1.51.05-1.79v-2.5l.05-1.42v-.8l-.05-1.23.15-1.46v-1.94l.05-1.37-.05-.76.15-.33.45-.33,1.05-.19,1.35.09h1.35l.95-.05h1.3l1-.05,1.4.05.75-.05,1.2.05,1.05-.05.35.05.8-.05h1.25l.9-.09,1.2.09h3.85l1.15.19.8.19,1,.38,1.05.47,1.3.94.9.99.5.66.6.99.6,1.51.4,1.46.2,1.51v1.56l-.15.99-.35,1.23-.3.75-.4.76-.45.75-.9,1.13-.8.71-1.3.85-1.65.66-1.05.33-.75.09-.85.05-.5.14.3.8.45.66.6.8,1.1,1.42.65.8.4.47.9,1.18,1.3,1.51,1.5,2.03,1.1,1.42.85,1.18-.05.52-.2.33-.7.38-.7.47-.3.14-.25.05-.4-.09-.7-.61-1.05-1.18-1.15-1.32-1-1.51-.95-1.09-.65-.8-.85-.99-.55-.71-.4-.47-.55-.75-.65-.8-.4-.66-.4-.47-.75-.99-.55-.66-1.1-.85-.9-.24-2.7-.09-.9-.09-2.55.05h-1.35l-.85.05-.5.14-.6.33-.25.99-.05,1.51v2.03l.05,1.89-.05,1.65.1,1.51-.05,1.18.05.9-.05.99-.15.71-.35.33-1.15.19-1.05-.05ZM754.19,16.86l1.6.05h2.65l4.4-.28,2.45-.19,1.45-.42.95-.71.65-.71.4-.8.35-.9.1-.61.15-.52.05-.76v-1.18l-.1-.85-.05-.71-.25-.85-.4-.8-.7-.85-.8-.71-1.5-.66-1.65-.33-2.45-.14h-1.65l-1.4-.09-3-.09-1,.05-2.75.19-1.6-.05h-.95l-1,.19-.15.24-.1.52-.1.8-.05.99.05,1.42.05,1.7v2.79l-.1,1.56.1.99.1.76.4.61,1.2.14.8.14.7.05,1.1-.05.85.14,1.2-.05Z"></path>
    </g>
  </g>
</svg>