<?xml version="1.0"?>
<svg id="Warstwa_3" data-name="Warstwa 3" xmlns="http://www.w3.org/2000/svg" viewBox="0 0 825.17 88.48">
  <g id="Warstwa_1" data-name="Warstwa 1">
    <g>
      <g>
        <path d="M568.29,36.29l-1.33-.2-.43-.5-.05-.25v-1.06l.16-1.06-.11-1.26-.05-.91.11-1.51-.05-1.26-.05-1.51v-.96l.16-1.21v-.76l.05-1.11v-1.71l.05-1.01.05-1.16-.11-1.31v-7.11l.05-1.81v-1.66l-.05-1.26-.05-.66-.27-.5-1.12-.2h-1.01l-1.12-.1-4.96-.05-1.92-.1h-2.14l-1.07-.1h-.75l-.64-.05-.53-.45-.11-.4-.05-.55.11-1.01.43-.71.75-.15.96.05h1.82l1.82.05,1.17-.05h9.71l.91.15.75-.1h.75l.43.05h1.39l2.19.1h1.28l1.01.05h4.27l4,.15h.96l.48.15.21.35.16,1.16-.16,1.01-.27.4-.69.3h-.69l-1.07-.1h-1.5l-1.23-.05h-8.49l-1.12.35-.43.55-.11.45v.55l-.16,1.41v2.17l-.05,1.91v1.97l-.05.55.05.71.05,1.21v1.16l-.05,1.11v2.07l-.11,1.16-.05,1.41v6.35l-.05,1.41v1.01l-.05.81.05.5-.05,1.16-.21,1.31-.43.6-.48.1-.85-.05Z"></path>
        <path d="M1.76,36.29l-.48-.05h-.64l-.48-.45-.11-.45-.05-1.16v-5.9l.05-1.51v-2.77l.11-.91-.11-1.26v-.66l.05-.91v-1.46l.11-1.41.05-1.56v-4.94l.11-1.06.05-1.56V2.77l.11-.96.16-.5.27-.3.53-.2h.69l1.71-.05,2.19.1,1.82.05,2.35-.05.91.05h4.01l2.3.05,1.55.05,1.07.1,1.01.05,1.82.25.91.15,1.12.25.64.25,1.28.71,1.6,1.16.53.66.75,1.06.75,2.12.21.96.16,1.06.05.96-.05,1.51-.16,1.36-.27,1.31-.37.96-.32.76-.43.71-.43.76-.43.45-.59.55-.53.4-.96.66-1.39.76-1.12.3-1.71.2-1.17.05h-1.23l-1.55-.1h-1.28l-1.12.05-1.6-.15h-7.32l-1.39-.05-.59.15-.37.3-.16.35-.11,1.01-.16,1.46v1.26l-.05,1.11v1.16l-.11.96.05,1.06-.11,1.56v1.51l-.05,1.61v1.06l-.32.45-.96.1-.8-.05ZM21.25,18.14l.91-.15.8-.1.96-.35.69-.4.8-.55.59-.6.53-.71.27-.76.16-.76.16-1.11.05-1.21v-1.11l-.16-1.01-.43-1.46-.53-1.06-.59-.66-.96-.7-.96-.45-2.3-.35-.59-.05h-1.6l-1.6.05-.64.05h-.85l-.8.05h-.53l-.75-.05-2.51.1h-3.15l-1.07-.05-1.66.05-.75.05-.16.15-.16.66-.16.96v2.67l-.11,1.26v2.32l-.05.96.05,1.31-.05,1.11.16.86.48.5.32.1h.43l.75.1,3.9.15h1.55l2.4.1h1.17l1.98.1h1.66l.91.05,1.44-.05Z"></path>
        <path d="M83.88,36.29l-1.28.1-1.33-.05-11.15-.1-1.44-.05-.75.05h-1.5l-1.71.05-1.76-.05h-4.65l-.85-.05-1.87.05-1.66-.3-.43-.5-.16-.71-.05-.96-.11-.91v-.81l.05-.91.05-1.06-.05-1.41.05-1.31v-.6l.05-.96v-6.31l.05-1.36v-1.01l-.11-2.17v-1.16l-.05-1.76.05-.96v-2.45l.11-1.36.05-1.26.11-.86.05-1.41.05-1.83.16-.61.11-.3.37-.35,1.28-.15,1.01.05,2.56-.05h1.76l1.5.2,2.19-.05,3.74.05,3.31-.05h8.75l1.23-.05h2.03l1.66.05,1.28.1.64.35.32.71.05,1.01-.16.66-.27.4-.64.25-1.39.1-3.26-.1h-1.55l-.91-.1-7.25-.05h-4.59l-1.44-.05h-1.44l-1.07.05-2.14.05h-1.18l-.64.1h-.59l-.69.1-.59.4-.27,1.01-.21,1.83v3.61l-.11.71.21.76.75.3h.69l.53.05,1.01.15h1.6l2.99.1h.85l1.28.1,1.39-.05h11.37l.59.1.48.2.32.71-.11.81-.05.66-.05.5-.21.35-.43.2-.37.05-.75-.05h-6.72l-1.6-.05-2.03.05-1.55-.1h-1.33l-1.17-.1h-1.5l-1.28.05-.8.1-1.28-.1-.85.05-.32-.05-.48.05-.64.35-.21.4-.05.35-.16,1.16-.05,1.46v3.89l.05.66v1.36l-.05,1.81-.11,1.56v1.16l.16.6.05.6.37.45.8.25.59.2.69-.05,1.12.05.91.05.69-.1h1.66l.48.05,2.08-.05,1.6-.1h3.9l6.93.15h1.55l.96.05h5.13l.43.25.43.7-.05.96-.11.76-.32.4-.27.2-.32.05-.59.05-.64.1h-.48l-1.07-.15Z"></path>
        <path d="M636.04,36.44l-1.28.1-1.33-.05-11.15-.1-1.44-.05-.75.05h-1.5l-1.71.05-1.76-.05h-4.65l-.85-.05-1.87.05-1.66-.3-.43-.5-.16-.71-.05-.96-.11-.91v-.81l.05-.91.05-1.06-.05-1.41.05-1.31v-.6l.05-.96v-6.31l.05-1.36v-1.01l-.11-2.17v-1.16l-.05-1.76.05-.96v-2.45l.11-1.36.05-1.26.11-.86.05-1.41.05-1.83.16-.61.11-.3.37-.35,1.28-.15,1.01.05,2.56-.05h1.76l1.5.2,2.19-.05,3.74.05,3.31-.05h8.75l1.23-.05h2.03l1.66.05,1.28.1.64.35.32.71.05,1.01-.16.66-.27.4-.64.25-1.39.1-3.26-.1h-1.55l-.91-.1-7.25-.05h-4.59l-1.44-.05h-1.44l-1.07.05-2.14.05h-1.18l-.64.1h-.59l-.69.1-.59.4-.27,1.01-.21,1.83v3.61l-.11.71.21.76.75.3h.69l.53.05,1.01.15h1.6l2.99.1h.85l1.28.1,1.39-.05h11.37l.59.1.48.2.32.71-.11.81-.05.66-.05.5-.21.35-.43.2-.37.05-.75-.05h-6.72l-1.6-.05-2.03.05-1.55-.1h-1.33l-1.17-.1h-1.5l-1.28.05-.8.1-1.28-.1-.85.05-.32-.05-.48.05-.64.35-.21.4-.05.35-.16,1.16-.05,1.46v3.89l.05.66v1.36l-.05,1.81-.11,1.56v1.16l.16.6.05.6.37.45.8.25.59.2.69-.05,1.12.05.91.05.69-.1h1.66l.48.05,2.08-.05,1.6-.1h3.9l6.93.15h1.55l.96.05h5.13l.43.25.43.7-.05.96-.11.76-.32.4-.27.2-.32.05-.59.05-.64.1h-.48l-1.07-.15Z"></path>
        <path d="M769.69,36.44l-1.28.1-1.33-.05-11.15-.1-1.44-.05-.75.05h-1.5l-1.71.05-1.76-.05h-4.65l-.85-.05-1.87.05-1.66-.3-.43-.5-.16-.71-.05-.96-.11-.91v-.81l.05-.91.05-1.06-.05-1.41.05-1.31v-.6l.05-.96v-6.31l.05-1.36v-1.01l-.11-2.17v-1.16l-.05-1.76.05-.96v-2.45l.11-1.36.05-1.26.11-.86.05-1.41.05-1.83.16-.61.11-.3.37-.35,1.28-.15,1.01.05,2.56-.05h1.76l1.5.2,2.19-.05,3.74.05,3.31-.05h8.75l1.23-.05h2.03l1.66.05,1.28.1.64.35.32.71.05,1.01-.16.66-.27.4-.64.25-1.39.1-3.26-.1h-1.55l-.91-.1-7.25-.05h-4.59l-1.44-.05h-1.44l-1.07.05-2.14.05h-1.18l-.64.1h-.59l-.69.1-.59.4-.27,1.01-.21,1.83v3.61l-.11.71.21.76.75.3h.69l.53.05,1.01.15h1.6l2.99.1h.85l1.28.1,1.39-.05h11.37l.59.1.48.2.32.71-.11.81-.05.66-.05.5-.21.35-.43.2-.37.05-.75-.05h-6.72l-1.6-.05-2.03.05-1.55-.1h-1.33l-1.17-.1h-1.5l-1.28.05-.8.1-1.28-.1-.85.05-.32-.05-.48.05-.64.35-.21.4-.05.35-.16,1.16-.05,1.46v3.89l.05.66v1.36l-.05,1.81-.11,1.56v1.16l.16.6.05.6.37.45.8.25.59.2.69-.05,1.12.05.91.05.69-.1h1.66l.48.05,2.08-.05,1.6-.1h3.9l6.93.15h1.55l.96.05h5.13l.43.25.43.7-.05.96-.11.76-.32.4-.27.2-.32.05-.59.05-.64.1h-.48l-1.07-.15Z"></path>
        <path d="M120.99,36.29l-1.33-.2-.43-.5-.05-.25v-1.06l.16-1.06-.11-1.26-.05-.91.11-1.51-.05-1.26-.05-1.51v-.96l.16-1.21v-.76l.05-1.11v-1.71l.05-1.01.05-1.16-.11-1.31v-7.11l.05-1.81v-1.66l-.05-1.26-.05-.66-.27-.5-1.12-.2h-1.01l-1.12-.1-4.96-.05-1.92-.1h-2.14l-1.07-.1h-.75l-.64-.05-.53-.45-.11-.4-.05-.55.11-1.01.43-.71.75-.15.96.05h1.82l1.82.05,1.17-.05h9.71l.91.15.75-.1h.75l.43.05h1.39l2.19.1h1.28l1.01.05h4.27l4,.15h.96l.48.15.21.35.16,1.16-.16,1.01-.27.4-.69.3h-.69l-1.07-.1h-1.5l-1.23-.05h-8.49l-1.12.35-.43.55-.11.45v.55l-.16,1.41v2.17l-.05,1.91v1.97l-.05.55.05.71.05,1.21v1.16l-.05,1.11v2.07l-.11,1.16-.05,1.41v6.35l-.05,1.41v1.01l-.05.81.05.5-.05,1.16-.21,1.31-.43.6-.48.1-.85-.05Z"></path>
        <path d="M159.33,36.54l-.64-.35-.32-.71-.11-1.21-.05-2.02v-3.58l.05-1.06v-1.56l-.11-1.16v-.5l.05-.71-.21-1.31.05-1.61v-1.21l.05-1.11.05-.96-.05-1.61.05-1.91v-2.67l.05-1.51v-.86l-.05-1.31.16-1.56v-2.07l.05-1.46-.05-.81.16-.35.48-.35,1.12-.2,1.44.1h1.44l1.01-.05h1.39l1.07-.05,1.5.05.8-.05,1.28.05,1.12-.05.37.05.85-.05h1.33l.96-.1,1.28.1h4.11l1.23.2.85.2,1.07.4,1.12.5,1.39,1.01.96,1.06.53.7.64,1.06.64,1.61.43,1.56.21,1.61v1.66l-.16,1.06-.37,1.31-.32.81-.43.81-.48.81-.96,1.21-.85.76-1.39.91-1.76.71-1.12.35-.8.1-.91.05-.53.15.32.86.48.71.64.86,1.17,1.51.69.86.43.5.96,1.26,1.39,1.61,1.6,2.17,1.18,1.51.91,1.26-.05.56-.21.35-.75.4-.75.5-.32.15-.27.05-.43-.1-.75-.66-1.12-1.26-1.23-1.41-1.07-1.61-1.01-1.16-.69-.86-.91-1.06-.59-.76-.43-.5-.59-.81-.69-.86-.43-.7-.43-.5-.8-1.06-.59-.7-1.17-.91-.96-.25-2.88-.1-.96-.1-2.72.05h-1.44l-.91.05-.53.15-.64.35-.27,1.06-.05,1.61v2.17l.05,2.02-.05,1.76.11,1.61-.05,1.26.05.96-.05,1.06-.16.76-.37.35-1.23.2-1.12-.05ZM168.89,17.99l1.71.05h2.83l4.7-.3,2.62-.2,1.55-.45,1.01-.76.69-.76.43-.86.37-.96.11-.66.16-.55.05-.81v-1.26l-.11-.91-.05-.76-.27-.91-.43-.86-.75-.91-.85-.76-1.6-.71-1.76-.35-2.62-.15h-1.76l-1.5-.1-3.2-.1-1.07.05-2.94.2-1.71-.05h-1.01l-1.07.2-.16.25-.11.55-.11.86-.05,1.06.05,1.51.05,1.81v2.97l-.11,1.66.11,1.06.11.81.43.66,1.28.15.85.15.75.05,1.17-.05.91.15,1.28-.05Z"></path>
        <path d="M214.97,36.39l-.69-.25-.16-.4-.16-.5v-6.85l.05-1.31-.05-.81v-.86l.11-.76.05-.35-.05-.3-.05-.6.05-1.06-.11-1.26.05-1.11v-1.16l.11-1.26v-5.54l.05-1.97-.11-2.12.05-1.51v-1.31l.11-1.51-.05-.96.05-.76.27-.6.53-.2.75-.1.75.1.64.05.48.25.16.35v.91l.05,1.01v.86l.11,1.36.05,1.36-.11.76v.55l-.05,1.36-.05,1.11.05,1.31.16,1.06v5.8l-.16,1.11v1.97l.11,1.01-.11,1.51v2.22l.05,1.51-.05.96-.05,1.21v.7l.05,1.11v1.36l-.05.96v.91l-.32.66-.75.2h-.85l-.91-.15Z"></path>
        <path d="M258.97,37.14l-1.07-.1-1.23-.35-1.12-.3-.48-.15-.53-.15-1.07-.5-.75-.4-1.55-.86-1.39-.71-.8-.66-.59-.55-.64-.4-1.07-1.01-1.17-1.31-.69-.86-.64-1.06-.8-1.61-.53-1.21-.21-.76-.53-1.51-.32-1.31v-1.01l-.11-.81.05-.81v-1.26l.16-1.31.16-1.36.32-1.21.43-1.21.27-.86.16-.56.21-.5.48-.86.8-1.21,1.5-2.01.75-.76.8-.76,1.17-.96.91-.66.69-.45,1.71-.91.91-.45,1.01-.4,1.66-.4,1.34-.3,1.07-.1,1.87-.25h.96l1.82.05,1.07.1.75.15.75.1.96.3,1.01.1,1.07.4.96.35,1.98.96,1.39.86,1.01.5.64.66.53.45.64.6.64.55.37.45.21.55.16.45-.16.45-.43.55-.53.45-.69.15-.8-.05-.75-.4-.75-.91-.91-.86-.75-.6-1.07-.81-1.17-.6-1.28-.55-.75-.3-.8-.2-1.17-.35-1.01-.2-.91-.1-.85-.15-3.04.15-.96.15-.53.2-.96.25-1.23.35-1.23.45-1.23.66-1.6,1.06-1.55,1.36-.59.66-1.28,1.51-.64.91-.53,1.11-.53,1.26-.27.96-.27,1.16-.27.91.05.71-.11,1.06v1.66l.11,1.51.21.96.11.66.27.66.27.81.59.96.21.6.43.76.91,1.31.96,1.16.69.66.8.61,1.12.7.75.61.59.3.48.3,1.6.76,1.12.35,1.6.4,1.01.15.96.1,1.5-.05.96.05,1.01-.2,1.07-.25.75-.25.85-.1,1.12-.4.85-.4,1.23-.81,2.19-1.46.43-.45,1.71-1.26.91-.3.85.25.85.6.32.6-.05.4-.16.5-.27.3-2.14,2.02-.64.4-.59.45-.91.45-1.23.81-1.33.66-1.07.4-.85.3-1.82.45-1.6.2-.48.05-.64.15-.96.15h-2.3l-.85-.1Z"></path>
        <path d="M332.44,36.29l-.69-.15-.32-.5-.16-1.11-.05-1.06.05-1.11-.05-1.46.11-1.21.05-1.81.05-2.07-.05-1.36v-1.11l-.11-.86-.05-.86-.11-.81-.21-.35-.37-.4-.85-.15-1.23-.1-1.28.05-.91-.1h-1.12l-1.23-.1-.91.05-.59-.05-10.67-.1-1.76-.1-2.14.1-2.08.05-1.07.4-.16.35-.05,1.11-.11,1.01-.11,1.31v1.31l.11,2.01v6l-.05,1.16-.16.81-.11.81-.27.3-.43.1-1.17.05-.91-.1-.59-.35-.21-1.01.11-1.46v-1.11l-.11-.55.05-1.31.11-1.41-.11-.86v-4.84l.05-1.31.05-2.22v-1.11l-.05-1.61v-3.33l-.05-1.61.11-1.01v-2.57l.05-1.16v-1.11l.05-1.51v-1.21l.05-.86.05-1.11.11-.4.21-.3.37-.05.75.05h1.44l.32.15.27.81.16,1.36.05,1.46-.16,1.51.05,1.71v.91l-.05,2.07v3.63l.11.6.21.4.59.4.64.2.8.15,1.07-.05,1.23.05h2.72l1.07.05,1.28-.05,1.71-.05,6.03.1h2.08l1.34.05,1.01.05,1.01-.05,1.23.1,1.5-.1.75-.25.37-.45.16-.4.11-1.11.05-1.16v-1.36l.11-1.41-.11-1.46-.05-1.86v-3.12l.21-1.51.16-.76.48-.35,1.07-.15,1.23.1.37.2.37.81v1.01l.05,1.06v2.12l.11,1.46-.11,1.06-.05,1.56v.91l.05,1.16v3.83l-.16,1.36.05.66.05.96-.11.86v.76l.11,1.06v1.41l.05,1.56v1.26l-.05.86-.11.96-.05.96v6.8l-.05.3-.37.35-.75.05h-.75l-.75-.15Z"></path>
        <path d="M375.74,37.39l-2.3-.1-1.39-.3-1.12-.2-.91-.3-.75-.2-1.6-.6-.96-.55-1.17-.56-1.12-.66-.85-.55-.85-.71-2.14-2.12-.37-.5-.59-.66-.48-.76-.64-.86-.53-1.16-.48-.91-.37-1.16-.27-1.01-.21-.86-.21-1.01-.05-1.16-.16-1.31v-1.71l.21-1.31.21-.91.21-1.21.32-1.01.21-.6.96-2.42.75-1.11.27-.45.43-.66,2.19-2.52,1.55-1.41.91-.6,1.39-.76.91-.56.75-.35.75-.25,1.28-.4,1.44-.4,1.23-.3,1.17-.1,1.07-.15h.53l.59.05.96.05,1.6.15,1.76.25,1.01.3,1.01.2,1.44.56,1.66.55.96.55.69.3,2.56,1.82,1.28,1.21.64.66.53.45.75,1.01.69,1.26.85,1.56.64,1.91.27.91.37,1.51.16.71.05,1.31.11,1.97-.05,1.01-.16,1.21-.48,2.17-.64,2.27-.8,1.82-.75,1.11-.64.96-.85,1.11-1.87,1.76-3.1,2.02-1.01.6-1.18.5-.96.35-1.71.66-1.07.25-.91.1-.75.1-.48.05-.85.15-1.55-.05ZM377.29,33.82l.91-.2.43-.05.59-.05,1.23-.3,1.92-.66,1.28-.61.91-.5.69-.5.48-.25,1.18-1.01,1.44-1.36.8-1.11.96-1.41.59-1.21.32-1.01.37-1.16.16-1.31.16-1.06v-1.46l-.11-.96-.05-1.36-.21-1.11-.27-.96-.43-1.21-.53-1.31-.64-1.21-1.01-1.46-1.82-1.61-1.17-.96-1.01-.65-.85-.45-1.17-.6-.69-.25-1.07-.35-1.55-.35-.96-.15-1.23-.1-1.55.1-2.35.1-1.01.15-1.17.25-1.55.6-1.28.55-.59.35-.53.45-1.39.96-.85.81-.59.66-1.01,1.36-.8,1.26-.64,1.16-.48.81-.37,1.26-.43,1.71-.21,2.32.11,1.26v.91l.05.91.37,1.41.48,1.36.59,1.26.37.76.64,1.01.85,1.11,1.28,1.31,1.12.81,1.07.76,1.33.81,1.17.55,1.33.56,1.23.3.48.1,1.39.2,2.08.2,1.23-.15Z"></path>
        <path d="M419.1,36.54l-.64-.35-.32-.71-.11-1.21-.05-2.02v-3.58l.05-1.06v-1.56l-.11-1.16v-.5l.05-.71-.21-1.31.05-1.61v-1.21l.05-1.11.05-.96-.05-1.61.05-1.91v-2.67l.05-1.51v-.86l-.05-1.31.16-1.56v-2.07l.05-1.46-.05-.81.16-.35.48-.35,1.12-.2,1.44.1h1.44l1.01-.05h1.39l1.07-.05,1.5.05.8-.05,1.28.05,1.12-.05.37.05.86-.05h1.33l.96-.1,1.28.1h4.11l1.23.2.86.2,1.07.4,1.12.5,1.39,1.01.96,1.06.53.7.64,1.06.64,1.61.43,1.56.21,1.61v1.66l-.16,1.06-.37,1.31-.32.81-.43.81-.48.81-.96,1.21-.85.76-1.39.91-1.76.71-1.12.35-.8.1-.91.05-.53.15.32.86.48.71.64.86,1.17,1.51.69.86.43.5.96,1.26,1.39,1.61,1.6,2.17,1.17,1.51.91,1.26-.05.56-.21.35-.75.4-.75.5-.32.15-.27.05-.43-.1-.75-.66-1.12-1.26-1.23-1.41-1.07-1.61-1.01-1.16-.69-.86-.91-1.06-.59-.76-.43-.5-.59-.81-.69-.86-.43-.7-.43-.5-.8-1.06-.59-.7-1.18-.91-.96-.25-2.88-.1-.96-.1-2.72.05h-1.44l-.91.05-.53.15-.64.35-.27,1.06-.05,1.61v2.17l.05,2.02-.05,1.76.11,1.61-.05,1.26.05.96-.05,1.06-.16.76-.37.35-1.23.2-1.12-.05ZM428.66,17.99l1.71.05h2.83l4.7-.3,2.62-.2,1.55-.45,1.02-.76.69-.76.43-.86.37-.96.11-.66.16-.55.05-.81v-1.26l-.11-.91-.05-.76-.27-.91-.43-.86-.75-.91-.86-.76-1.6-.71-1.76-.35-2.62-.15h-1.76l-1.5-.1-3.2-.1-1.07.05-2.94.2-1.71-.05h-1.02l-1.07.2-.16.25-.11.55-.11.86-.05,1.06.05,1.51.05,1.81v2.97l-.11,1.66.11,1.06.11.81.43.66,1.28.15.86.15.75.05,1.17-.05.91.15,1.28-.05Z"></path>
        <path d="M535.29,36.13l-.32-.76-.27-.6-.64-1.11-.69-1.26-.27-.96-.86-1.61-.8-1.81-.64-1.16-.43-.81-.59-.45-.75-.35-.96-.2-.91-.05-2.14-.25h-1.6l-.69-.05h-1.12l-.85.05-.64-.1h-.75l-.53.05h-2.03l-.85.1-1.5.25-1.07.3-.43.35-.43.6-.53.91-.37.76-.27.5-.59,1.16-.43.81-.8,1.76-.59,1.26-.48.91-.59,1.01-.53.86-.43.25-.59-.05-.96-.3-.96-.35-.48-.66.05-.5.48-1.11.53-1.16.69-1.26.53-1.06.86-1.81.59-1.11.37-1.01.64-1.06.32-.71.48-.91.48-1.06.37-.86.48-1.16.48-.91.69-1.16.16-.35.37-.66.48-1.06.59-1.16.32-.86.43-.91.8-1.51.48-.96.69-1.31.43-.76.43-.86.69-1.21.59-1.36.32-.71.21-.5.32-.56.53-.91.32-.55.75-1.01.37-.25.53-.1.53.1.37.35.59.86.53.76.37.66.43.86.53,1.16.53,1.36.86,2.22.37.71.37,1.06.85,1.56.59,1.46.37.81.53,1.06.75,1.66.53.81.32.55.27.86.59,1.21.64,1.61.75,1.51.69,1.36.53,1.21.48,1.11.59,1.16.48,1.11.53.96.64,1.46.59,1.16.32.66.21.76v.66l-.27.5-.85.45-.86.25h-.75l-.59-.61ZM526.1,21.47h.75l.69-.2.21-.15v-.55l-.43-.96-.27-.86-.32-.76-.48-1.21-.53-1.01-.59-1.41-.43-.86-.59-1.11-.43-.91-.37-.81-.27-.6-.48-.96-.43-.71-.53-.25-.48.4-.37.71-.37.76-.27.81-.43.96-.37.6-.32.76-.43.86-.48.76-.48.96-.69,1.26-.64,1.56-.69,1.31-.11,1.06.48.3.48.15.86.1h1.28l1.55-.1,1.23.1.96-.05.86.05h.85l1.33.05.75-.05Z"></path>
        <path d="M684.58,36.49l-1.07-.05h-1.12l-.75-.05h-1.28l-1.07.05h-2.62l-.64-.05h-4.81l-.69-.1-1.01.1h-1.01l-1.34.05-1.23-.05-.96.05-1.55-.15-1.28-.25-.21-.45-.11-.6-.05-1.16.16-1.21v-4.23l.05-2.27-.05-1.16-.11-1.81.11-1.01v-1.06l.05-.96v-7.56l.05-1.61v-1.31l.11-1.01-.05-.5.05-.56v-1.11l.05-1.61-.11-1.56.11-1.21.11-.5.16-.25.43-.2h.96l1.44.2.53.6v.55l-.05.55.05.91-.05,1.26v2.77l-.05,1.11.11,1.51v1.26l-.11.6-.05.76v1.41l.05,2.01v2.12l-.05.86-.05,1.56-.11,1.36.11,1.61v4.69l-.05.91-.05,1.21.05,1.06.32.66.32.2.27.1,1.34.15h2.08l1.44-.1.86.05.85-.05h.91l1.12.05,1.66-.05.96-.05,1.81.05,4.01.05h1.17l1.23.05h.59l.64-.05.48.15.27.15.32.5.05.45-.05.71-.05.91-.21.25-.32.25-1.07.1-1.18.05-.8-.1Z"></path>
        <path d="M711.01,36.44l-.69-.25-.16-.4-.16-.5v-6.85l.05-1.31-.05-.81v-.86l.11-.76.05-.35-.05-.3-.05-.6.05-1.06-.11-1.26.05-1.11v-1.16l.11-1.26v-5.54l.05-1.97-.11-2.12.05-1.51v-1.31l.11-1.51-.05-.96.05-.76.27-.6.53-.2.75-.1.75.1.64.05.48.25.16.35v.91l.05,1.01v.86l.11,1.36.05,1.36-.11.76v.55l-.05,1.36-.05,1.11.05,1.31.16,1.06v5.8l-.16,1.11v1.97l.11,1.01-.11,1.51v2.22l.05,1.51-.05.96-.05,1.21v.7l.05,1.11v1.36l-.05.96v.91l-.32.66-.75.2h-.86l-.91-.15Z"></path>
        <path d="M795.37,36.54l-.64-.35-.32-.71-.11-1.21-.05-2.02v-3.58l.05-1.06v-1.56l-.11-1.16v-.5l.05-.71-.21-1.31.05-1.61v-1.21l.05-1.11.05-.96-.05-1.61.05-1.91v-2.67l.05-1.51v-.86l-.05-1.31.16-1.56v-2.07l.05-1.46-.05-.81.16-.35.48-.35,1.12-.2,1.44.1h1.44l1.01-.05h1.39l1.07-.05,1.5.05.8-.05,1.28.05,1.12-.05.37.05.85-.05h1.33l.96-.1,1.28.1h4.11l1.23.2.85.2,1.07.4,1.12.5,1.39,1.01.96,1.06.53.7.64,1.06.64,1.61.43,1.56.21,1.61v1.66l-.16,1.06-.37,1.31-.32.81-.43.81-.48.81-.96,1.21-.86.76-1.39.91-1.76.71-1.12.35-.8.1-.91.05-.53.15.32.86.48.71.64.86,1.18,1.51.69.86.43.5.96,1.26,1.39,1.61,1.6,2.17,1.18,1.51.91,1.26-.05.56-.21.35-.75.4-.75.5-.32.15-.27.05-.43-.1-.75-.66-1.12-1.26-1.23-1.41-1.07-1.61-1.01-1.16-.69-.86-.91-1.06-.59-.76-.43-.5-.59-.81-.69-.86-.43-.7-.43-.5-.8-1.06-.59-.7-1.17-.91-.96-.25-2.88-.1-.96-.1-2.72.05h-1.44l-.91.05-.53.15-.64.35-.27,1.06-.05,1.61v2.17l.05,2.02-.05,1.76.11,1.61-.05,1.26.05.96-.05,1.06-.16.76-.37.35-1.23.2-1.12-.05ZM804.93,17.99l1.71.05h2.83l4.7-.3,2.62-.2,1.55-.45,1.01-.76.69-.76.43-.86.37-.96.11-.66.16-.55.05-.81v-1.26l-.11-.91-.05-.76-.27-.91-.43-.86-.75-.91-.85-.76-1.6-.71-1.76-.35-2.62-.15h-1.76l-1.5-.1-3.2-.1-1.07.05-2.94.2-1.71-.05h-1.01l-1.07.2-.16.25-.11.55-.11.86-.05,1.06.05,1.51.05,1.81v2.97l-.11,1.66.11,1.06.11.81.43.66,1.28.15.85.15.75.05,1.18-.05.91.15,1.28-.05Z"></path>
      </g>
      <g>
        <path d="M265.17,74.28h9.88v1.29h-8.37v5.12h8.07v1.29h-8.07v6.41h-1.51v-14.12Z"></path>
        <path d="M279.38,88.4v-14.12h5.85c2.72,0,5.3.89,5.3,4.38,0,2.74-1.57,3.87-3.55,4.23l3.91,5.51h-1.69l-3.81-5.36h-4.5v5.36h-1.51ZM280.89,75.57v6.17h4.25c1.82,0,3.85-.4,3.85-3.09s-2.04-3.08-3.85-3.08h-4.25Z"></path>
        <path d="M293.14,88.4l6.62-14.12h1.23l6.62,14.12h-1.59l-1.55-3.39h-8.17l-1.55,3.39h-1.59ZM303.85,83.72l-3.49-7.54-3.47,7.54h6.96Z"></path>
        <path d="M310.15,81.32c0-4.5,2.64-7.14,7.16-7.14,0,0,5.55-.12,6.51,4.52h-1.41c-1.11-3.49-5.1-3.25-5.1-3.25-3.63,0-5.63,2.1-5.63,5.87s2,5.89,5.63,5.89c3.37,0,5.45-1.9,5.57-4.8h-5.57v-1.29h7.04c.08.65.12,2.46-.79,4.16-1.11,2.08-3.31,3.21-6.25,3.21-4.52,0-7.16-2.64-7.16-7.16Z"></path>
        <path d="M328.4,88.4v-14.12h5.85c2.72,0,5.3.89,5.3,4.38,0,2.74-1.57,3.87-3.55,4.23l3.91,5.51h-1.69l-3.81-5.36h-4.5v5.36h-1.51ZM329.91,75.57v6.17h4.26c1.82,0,3.85-.4,3.85-3.09s-2.04-3.08-3.85-3.08h-4.26Z"></path>
        <path d="M342.16,88.4l6.62-14.12h1.23l6.62,14.12h-1.59l-1.55-3.39h-8.17l-1.55,3.39h-1.59ZM352.87,83.72l-3.49-7.54-3.47,7.54h6.96Z"></path>
        <path d="M359.98,74.28h1.21l9.44,11.53v-11.53h1.51v14.12h-1.21l-9.44-11.55v11.55h-1.51v-14.12Z"></path>
        <path d="M376.35,81.32c0-4.54,2.54-7.14,6.98-7.14,3.55,0,5.83,1.55,6.63,4.52h-1.47c-.73-2.16-2.44-3.25-5.12-3.25-3.59,0-5.57,2.1-5.57,5.87s1.98,5.87,5.57,5.87c2.68,0,4.4-1.09,5.12-3.23h1.47c-.81,2.97-3.08,4.52-6.63,4.52-4.44,0-6.98-2.6-6.98-7.16Z"></path>
        <path d="M393.98,74.28h9.88v1.27h-8.37v5.14h8.07v1.29h-8.07v5.12h8.65v1.29h-10.16v-14.12Z"></path>
        <path d="M415.43,88.4v-14.12h5.83c4.4,0,6.9,2.56,6.9,7.06s-2.5,7.06-6.9,7.06h-5.83ZM421.24,87.11c3.53,0,5.49-2.04,5.49-5.77s-1.96-5.79-5.49-5.77h-4.3v11.53h4.3Z"></path>
        <path d="M432.18,74.28h9.88v1.27h-8.37v5.14h8.07v1.29h-8.07v5.12h8.65v1.29h-10.16v-14.12Z"></path>
        <path d="M446.07,74.28h9.88v1.27h-8.37v5.14h8.07v1.29h-8.07v5.12h8.65v1.29h-10.16v-14.12Z"></path>
        <path d="M459.95,88.4v-14.12h5.85c2.72,0,5.3.89,5.3,4.38s-2.58,4.38-5.3,4.38h-4.34v5.36h-1.51ZM461.46,81.74h4.26c1.82,0,3.85-.4,3.85-3.09s-2.04-3.08-3.85-3.08h-4.26v6.17Z"></path>
        <path d="M484.87,87.11v1.29h-9.74v-14.12h1.51v12.83h8.23Z"></path>
        <path d="M486.48,74.28h1.77l4.72,7.24,4.74-7.24h1.75l-5.73,8.55v5.56h-1.53v-5.56l-5.73-8.55Z"></path>
        <path d="M510.2,74.28h9.88v1.29h-8.37v5.12h8.07v1.29h-8.07v6.41h-1.51v-14.12Z"></path>
        <path d="M524.41,74.28h9.88v1.27h-8.37v5.14h8.07v1.29h-8.07v5.12h8.65v1.29h-10.16v-14.12Z"></path>
        <path d="M548.04,87.11v1.29h-9.74v-14.12h1.51v12.83h8.23Z"></path>
        <path d="M549.64,74.28h11.84v1.29h-5.16v12.83h-1.51v-12.83h-5.16v-1.29Z"></path>
      </g>
    </g>
  </g>
</svg>