<?xml version="1.0"?>
<svg id="Warstwa_2" data-name="Warstwa 2" xmlns="http://www.w3.org/2000/svg" viewBox="0 0 690.27 138.42" fill="#7e8c54">
  <g id="Warstwa_1" data-name="Warstwa 1">
    <g>
      <g>
        <path d="M2.71,55.8l-.74-.08h-.99l-.74-.7-.16-.7-.08-1.78v-9.07l.08-2.32v-4.26l.16-1.39-.16-1.94v-1.01l.08-1.39v-2.25l.16-2.17.08-2.4v-7.59l.16-1.63.08-2.4V4.26l.16-1.47.25-.78.41-.46.82-.31h1.07l2.63-.08,3.37.16,2.79.08,3.61-.08,1.4.08h6.16l3.53.08,2.38.08,1.64.16,1.56.08,2.79.39,1.4.23,1.72.39.99.39,1.97,1.09,2.46,1.78.82,1.01,1.15,1.63,1.15,3.25.33,1.47.25,1.63.08,1.47-.08,2.33-.25,2.09-.41,2.01-.58,1.47-.49,1.16-.66,1.09-.66,1.16-.66.7-.9.85-.82.62-1.48,1.01-2.14,1.16-1.72.46-2.63.31-1.81.08h-1.89l-2.38-.16h-1.97l-1.72.08-2.46-.23h-11.25l-2.14-.08-.9.23-.58.46-.25.54-.16,1.55-.25,2.25v1.94l-.08,1.7v1.78l-.16,1.47.08,1.63-.16,2.4v2.32l-.08,2.48v1.63l-.49.7-1.48.16-1.23-.08ZM32.68,27.9l1.4-.23,1.23-.16,1.48-.54,1.07-.62,1.23-.85.9-.93.82-1.09.41-1.16.25-1.16.25-1.71.08-1.86v-1.71l-.25-1.55-.66-2.25-.82-1.63-.9-1.01-1.48-1.08-1.48-.7-3.53-.54-.9-.08h-2.46l-2.46.08-.99.08h-1.31l-1.23.08h-.82l-1.15-.08-3.86.16h-4.85l-1.64-.08-2.55.08-1.15.08-.25.23-.25,1.01-.25,1.47v4.11l-.16,1.94v3.57l-.08,1.47.08,2.01-.08,1.7.25,1.32.74.77.49.16h.66l1.15.15,5.99.23h2.38l3.7.16h1.81l3.04.15h2.55l1.4.08,2.22-.08Z"></path>
        <path d="M128.98,55.8l-1.97.16-2.05-.08-17.15-.16-2.22-.08-1.15.08h-2.3l-2.63.08-2.71-.08h-7.14l-1.31-.08-2.87.08-2.55-.46-.66-.77-.25-1.09-.08-1.47-.16-1.39v-1.24l.08-1.39.08-1.63-.08-2.17.08-2.01v-.93l.08-1.47v-9.7l.08-2.09v-1.55l-.16-3.33v-1.78l-.08-2.71.08-1.47v-3.76l.16-2.09.08-1.94.16-1.32.08-2.17.08-2.81.25-.93.16-.46.58-.54,1.97-.23,1.56.08,3.94-.08h2.71l2.3.31,3.37-.08,5.75.08,5.09-.08h13.45l1.89-.08h3.12l2.55.08,1.97.16.99.54.49,1.09.08,1.55-.25,1.01-.41.62-.99.39-2.14.15-5.01-.15h-2.38l-1.4-.16-11.15-.08h-7.06l-2.22-.08h-2.22l-1.64.08-3.28.08h-1.81l-.99.16h-.9l-1.07.15-.9.62-.41,1.55-.33,2.81v5.55l-.16,1.09.33,1.16,1.15.46h1.07l.82.08,1.56.23h2.46l4.6.16h1.31l1.97.15,2.14-.08h17.48l.9.15.74.31.49,1.09-.16,1.24-.08,1.01-.08.77-.33.54-.66.31-.57.08-1.15-.08h-10.33l-2.46-.08-3.12.08-2.38-.16h-2.05l-1.81-.16h-2.3l-1.97.08-1.23.16-1.97-.16-1.31.08-.49-.08-.74.08-.99.54-.33.62-.08.54-.25,1.78-.08,2.25v5.98l.08,1.01v2.09l-.08,2.79-.16,2.4v1.78l.25.93.08.93.57.7,1.23.39.9.31,1.07-.08,1.73.08,1.4.08,1.07-.15h2.55l.74.08,3.2-.08,2.46-.16h5.99l10.66.23h2.38l1.48.08h7.88l.66.39.66,1.08-.08,1.47-.16,1.16-.49.62-.41.31-.49.08-.9.08-.99.16h-.74l-1.64-.23Z"></path>
        <path d="M186.05,55.8l-2.05-.31-.66-.78-.08-.39v-1.63l.25-1.63-.16-1.94-.08-1.39.16-2.32-.08-1.94-.08-2.32v-1.47l.25-1.86v-1.16l.08-1.71v-2.64l.08-1.55.08-1.78-.16-2.01v-10.93l.08-2.79v-2.56l-.08-1.94-.08-1.01-.41-.78-1.73-.31h-1.56l-1.72-.16-7.63-.08-2.96-.16h-3.28l-1.64-.16h-1.15l-.99-.08-.82-.7-.16-.62-.08-.85.16-1.55.66-1.09,1.15-.23,1.48.08h2.79l2.79.08,1.81-.08h14.94l1.4.23,1.15-.16h1.15l.66.08h2.14l3.37.16h1.97l1.56.08h6.56l6.16.23h1.48l.74.23.33.54.25,1.78-.25,1.55-.41.62-1.07.46h-1.07l-1.64-.16h-2.3l-1.89-.08h-13.05l-1.72.54-.66.85-.16.7v.85l-.25,2.17v3.33l-.08,2.94v3.02l-.08.85.08,1.09.08,1.86v1.78l-.08,1.7v3.18l-.16,1.78-.08,2.17v9.76l-.08,2.17v1.55l-.08,1.24.08.78-.08,1.78-.33,2.01-.66.93-.74.16-1.31-.08Z"></path>
        <path d="M245,56.18l-.99-.54-.49-1.09-.16-1.86-.08-3.1v-5.5l.08-1.63v-2.4l-.16-1.78v-.77l.08-1.09-.33-2.01.08-2.48v-1.86l.08-1.71.08-1.47-.08-2.48.08-2.94v-4.11l.08-2.33v-1.32l-.08-2.01.25-2.4v-3.18l.08-2.25-.08-1.24.25-.54.74-.54,1.72-.31,2.22.16h2.22l1.56-.08h2.14l1.64-.08,2.3.08,1.23-.08,1.97.08,1.73-.08.58.08,1.31-.08h2.05l1.48-.16,1.97.16h6.32l1.89.31,1.31.31,1.64.62,1.73.77,2.13,1.55,1.48,1.63.82,1.08.99,1.63.99,2.48.66,2.4.33,2.48v2.56l-.25,1.63-.57,2.01-.49,1.24-.66,1.24-.74,1.24-1.48,1.86-1.31,1.16-2.13,1.39-2.71,1.09-1.73.54-1.23.16-1.4.08-.82.23.49,1.32.74,1.09.99,1.32,1.81,2.32,1.07,1.32.66.78,1.48,1.94,2.14,2.48,2.46,3.33,1.81,2.32,1.4,1.94-.08.85-.33.54-1.15.62-1.15.78-.49.23-.41.08-.66-.15-1.15-1.01-1.72-1.94-1.89-2.17-1.64-2.48-1.56-1.78-1.07-1.32-1.4-1.63-.9-1.16-.66-.78-.9-1.24-1.07-1.32-.66-1.08-.66-.78-1.23-1.63-.9-1.08-1.81-1.4-1.48-.39-4.43-.15-1.48-.16-4.19.08h-2.22l-1.4.08-.82.23-.99.54-.41,1.63-.08,2.48v3.33l.08,3.1-.08,2.71.16,2.48-.08,1.94.08,1.47-.08,1.63-.25,1.16-.58.54-1.89.31-1.72-.08ZM259.7,27.67l2.63.08h4.35l7.23-.46,4.02-.31,2.38-.7,1.56-1.16,1.07-1.16.66-1.32.58-1.47.16-1.01.25-.85.08-1.24v-1.94l-.16-1.39-.08-1.16-.41-1.39-.66-1.32-1.15-1.4-1.31-1.16-2.46-1.09-2.71-.54-4.02-.23h-2.71l-2.3-.16-4.93-.16-1.64.08-4.52.31-2.63-.08h-1.56l-1.64.31-.25.39-.16.85-.16,1.32-.08,1.63.08,2.33.08,2.79v4.57l-.16,2.56.16,1.63.16,1.24.66,1.01,1.97.23,1.31.23,1.15.08,1.81-.08,1.4.23,1.97-.08Z"></path>
        <path d="M330.56,55.95l-1.07-.39-.25-.62-.25-.78v-10.54l.08-2.01-.08-1.24v-1.32l.16-1.16.08-.54-.08-.46-.08-.93.08-1.63-.16-1.94.08-1.7v-1.78l.16-1.94v-8.52l.08-3.02-.16-3.25.08-2.32v-2.01l.16-2.33-.08-1.47.08-1.16.41-.93.82-.31,1.15-.15,1.15.15.99.08.74.39.25.54v1.39l.08,1.55v1.32l.16,2.09.08,2.09-.16,1.16v.85l-.08,2.09-.08,1.7.08,2.01.25,1.63v8.91l-.25,1.71v3.02l.16,1.55-.16,2.33v3.41l.08,2.32-.08,1.47-.08,1.86v1.08l.08,1.71v2.09l-.08,1.47v1.39l-.49,1.01-1.15.31h-1.31l-1.4-.23Z"></path>
        <path d="M398.22,57.11l-1.64-.15-1.89-.54-1.72-.46-.74-.23-.82-.23-1.64-.78-1.15-.62-2.38-1.32-2.14-1.09-1.23-1.01-.9-.85-.99-.62-1.64-1.55-1.81-2.01-1.07-1.32-.99-1.63-1.23-2.48-.82-1.86-.33-1.16-.82-2.33-.49-2.01v-1.55l-.16-1.24.08-1.24v-1.94l.25-2.01.25-2.09.49-1.86.66-1.86.41-1.32.25-.85.33-.77.74-1.32,1.23-1.86,2.3-3.1,1.15-1.16,1.23-1.16,1.81-1.47,1.4-1.01,1.07-.7,2.63-1.39,1.4-.7,1.56-.62,2.55-.62,2.05-.46,1.64-.15,2.87-.39h1.48l2.79.08,1.64.16,1.15.23,1.15.15,1.48.46,1.56.16,1.64.62,1.48.54,3.04,1.47,2.14,1.32,1.56.77.99,1.01.82.7.99.93.99.85.58.7.33.85.25.7-.25.7-.66.85-.82.7-1.07.23-1.23-.08-1.15-.62-1.15-1.39-1.4-1.32-1.15-.93-1.64-1.24-1.81-.93-1.97-.85-1.15-.46-1.23-.31-1.81-.54-1.56-.31-1.4-.16-1.31-.23-4.68.23-1.48.23-.82.31-1.48.39-1.89.54-1.89.7-1.89,1.01-2.46,1.63-2.38,2.09-.9,1.01-1.97,2.33-.99,1.39-.82,1.7-.82,1.94-.41,1.47-.41,1.78-.41,1.39.08,1.09-.16,1.63v2.56l.16,2.32.33,1.47.16,1.01.41,1.01.41,1.24.9,1.47.33.93.66,1.16,1.4,2.01,1.48,1.78,1.07,1.01,1.23.93,1.72,1.08,1.15.93.9.46.74.46,2.46,1.16,1.72.54,2.46.62,1.56.23,1.48.15,2.3-.08,1.48.08,1.56-.31,1.64-.39,1.15-.39,1.31-.15,1.72-.62,1.31-.62,1.89-1.24,3.37-2.25.66-.7,2.63-1.94,1.4-.47,1.31.39,1.31.93.49.93-.08.62-.25.77-.41.46-3.28,3.1-.99.62-.9.7-1.4.7-1.89,1.24-2.05,1.01-1.64.62-1.31.46-2.79.7-2.46.31-.74.08-.99.23-1.48.23h-3.53l-1.31-.16Z"></path>
        <path d="M511.19,55.8l-1.07-.23-.49-.77-.25-1.71-.08-1.63.08-1.71-.08-2.25.16-1.86.08-2.79.08-3.18-.08-2.09v-1.71l-.16-1.32-.08-1.32-.16-1.24-.33-.54-.57-.62-1.31-.23-1.89-.16-1.97.08-1.4-.16h-1.73l-1.89-.15-1.4.08-.9-.08-16.41-.16-2.71-.16-3.29.16-3.2.08-1.64.62-.25.54-.08,1.71-.16,1.55-.16,2.01v2.01l.16,3.1v9.22l-.08,1.78-.25,1.24-.16,1.24-.41.46-.66.16-1.81.08-1.4-.16-.9-.54-.33-1.55.16-2.25v-1.71l-.16-.85.08-2.01.16-2.17-.16-1.32v-7.44l.08-2.01.08-3.41v-1.7l-.08-2.48v-5.12l-.08-2.48.16-1.55v-3.95l.08-1.78v-1.71l.08-2.32v-1.86l.08-1.32.08-1.7.16-.62.33-.46.58-.08,1.15.08h2.22l.49.23.41,1.24.25,2.09.08,2.25-.25,2.32.08,2.64v1.39l-.08,3.18v5.58l.16.93.33.62.9.62.99.31,1.23.23,1.64-.08,1.89.08h4.19l1.64.08,1.97-.08,2.63-.08,9.27.16h3.2l2.05.08,1.56.08,1.56-.08,1.89.15,2.3-.15,1.15-.39.58-.7.25-.62.16-1.7.08-1.78v-2.09l.16-2.17-.16-2.25-.08-2.87v-4.8l.33-2.33.25-1.16.74-.54,1.64-.23,1.89.16.58.31.58,1.24v1.55l.08,1.63v3.25l.16,2.25-.16,1.63-.08,2.4v1.4l.08,1.78v5.89l-.25,2.09.08,1.01.08,1.47-.16,1.32v1.16l.16,1.63v2.17l.08,2.4v1.94l-.08,1.32-.16,1.47-.08,1.47v10.46l-.08.46-.58.54-1.15.08h-1.15l-1.15-.23Z"></path>
        <path d="M577.78,57.5l-3.53-.16-2.14-.46-1.72-.31-1.4-.46-1.15-.31-2.46-.93-1.48-.85-1.81-.85-1.73-1.01-1.31-.85-1.31-1.09-3.28-3.25-.58-.78-.9-1.01-.74-1.16-.99-1.32-.82-1.78-.74-1.39-.58-1.78-.41-1.55-.33-1.32-.33-1.55-.08-1.78-.25-2.01v-2.64l.33-2.01.33-1.39.33-1.86.49-1.55.33-.93,1.48-3.72,1.15-1.7.41-.7.66-1.01,3.37-3.87,2.38-2.17,1.4-.93,2.14-1.16,1.4-.85,1.15-.54,1.15-.39,1.97-.62,2.22-.62,1.89-.46,1.81-.16,1.64-.23h.82l.9.08,1.48.08,2.46.23,2.71.39,1.56.46,1.56.31,2.22.85,2.55.85,1.48.85,1.07.46,3.94,2.79,1.97,1.86.99,1.01.82.7,1.15,1.55,1.07,1.94,1.31,2.4.99,2.94.41,1.39.58,2.32.25,1.09.08,2.01.16,3.02-.08,1.55-.25,1.86-.74,3.33-.99,3.49-1.23,2.79-1.15,1.7-.99,1.47-1.31,1.71-2.88,2.71-4.76,3.1-1.56.93-1.81.78-1.48.54-2.63,1.01-1.64.39-1.4.15-1.15.16-.74.08-1.31.23-2.38-.08ZM580.16,52l1.4-.31.66-.08.9-.08,1.89-.46,2.96-1.01,1.97-.93,1.4-.77,1.07-.77.74-.39,1.81-1.55,2.22-2.09,1.23-1.71,1.48-2.17.9-1.86.49-1.55.58-1.78.25-2.01.25-1.63v-2.25l-.16-1.47-.08-2.09-.33-1.71-.41-1.47-.66-1.86-.82-2.01-.99-1.86-1.56-2.25-2.79-2.48-1.81-1.47-1.56-1.01-1.31-.7-1.81-.93-1.07-.39-1.64-.54-2.38-.54-1.48-.23-1.89-.15-2.38.15-3.61.16-1.56.23-1.81.39-2.38.93-1.97.85-.9.54-.82.7-2.14,1.47-1.31,1.24-.9,1.01-1.56,2.09-1.23,1.94-.99,1.78-.74,1.24-.58,1.94-.66,2.64-.33,3.56.16,1.94v1.39l.08,1.39.58,2.17.74,2.09.9,1.94.58,1.16.99,1.55,1.31,1.71,1.97,2.01,1.72,1.24,1.64,1.16,2.05,1.24,1.81.85,2.05.85,1.89.46.74.15,2.14.31,3.2.31,1.89-.23Z"></path>
        <path d="M644.45,56.18l-.99-.54-.49-1.09-.16-1.86-.08-3.1v-5.5l.08-1.63v-2.4l-.16-1.78v-.77l.08-1.09-.33-2.01.08-2.48v-1.86l.08-1.71.08-1.47-.08-2.48.08-2.94v-4.11l.08-2.33v-1.32l-.08-2.01.25-2.4v-3.18l.08-2.25-.08-1.24.25-.54.74-.54,1.72-.31,2.22.16h2.22l1.56-.08h2.14l1.64-.08,2.3.08,1.23-.08,1.97.08,1.73-.08.58.08,1.31-.08h2.05l1.48-.16,1.97.16h6.32l1.89.31,1.31.31,1.64.62,1.73.77,2.13,1.55,1.48,1.63.82,1.08.99,1.63.99,2.48.66,2.4.33,2.48v2.56l-.25,1.63-.58,2.01-.49,1.24-.66,1.24-.74,1.24-1.48,1.86-1.31,1.16-2.14,1.39-2.71,1.09-1.73.54-1.23.16-1.4.08-.82.23.49,1.32.74,1.09.99,1.32,1.81,2.32,1.07,1.32.66.78,1.48,1.94,2.14,2.48,2.46,3.33,1.81,2.32,1.4,1.94-.08.85-.33.54-1.15.62-1.15.78-.49.23-.41.08-.66-.15-1.15-1.01-1.73-1.94-1.89-2.17-1.64-2.48-1.56-1.78-1.07-1.32-1.4-1.63-.9-1.16-.66-.78-.9-1.24-1.07-1.32-.66-1.08-.66-.78-1.23-1.63-.9-1.08-1.81-1.4-1.48-.39-4.44-.15-1.48-.16-4.19.08h-2.22l-1.4.08-.82.23-.99.54-.41,1.63-.08,2.48v3.33l.08,3.1-.08,2.71.16,2.48-.08,1.94.08,1.47-.08,1.63-.25,1.16-.58.54-1.89.31-1.72-.08ZM659.15,27.67l2.63.08h4.35l7.23-.46,4.02-.31,2.38-.7,1.56-1.16,1.07-1.16.66-1.32.58-1.47.16-1.01.25-.85.08-1.24v-1.94l-.16-1.39-.08-1.16-.41-1.39-.66-1.32-1.15-1.4-1.31-1.16-2.46-1.09-2.71-.54-4.02-.23h-2.71l-2.3-.16-4.93-.16-1.64.08-4.52.31-2.63-.08h-1.56l-1.64.31-.25.39-.16.85-.16,1.32-.08,1.63.08,2.33.08,2.79v4.57l-.16,2.56.16,1.63.16,1.24.66,1.01,1.97.23,1.31.23,1.15.08,1.81-.08,1.4.23,1.97-.08Z"></path>
      </g>
      <g>
        <path d="M197.1,137.72l-2.05-.31-.66-.78-.08-.39v-1.63l.25-1.63-.16-1.94-.08-1.39.16-2.32-.08-1.94-.08-2.32v-1.47l.25-1.86v-1.16l.08-1.71v-2.64l.08-1.55.08-1.78-.16-2.01v-10.93l.08-2.79v-2.56l-.08-1.94-.08-1.01-.41-.78-1.73-.31h-1.56l-1.72-.16-7.63-.08-2.96-.16h-3.28l-1.64-.16h-1.15l-.99-.08-.82-.7-.16-.62-.08-.85.16-1.55.66-1.09,1.15-.23,1.48.08h2.79l2.79.08,1.81-.08h14.94l1.4.23,1.15-.16h1.15l.66.08h2.14l3.37.16h1.97l1.56.08h6.56l6.16.23h1.48l.74.23.33.54.25,1.78-.25,1.55-.41.62-1.07.46h-1.07l-1.64-.16h-2.3l-1.89-.08h-13.05l-1.72.54-.66.85-.16.7v.85l-.25,2.17v3.33l-.08,2.94v3.02l-.08.85.08,1.09.08,1.86v1.78l-.08,1.7v3.18l-.16,1.78-.08,2.17v9.76l-.08,2.17v1.55l-.08,1.24.08.78-.08,1.78-.33,2.01-.66.93-.74.16-1.31-.08Z"></path>
        <path d="M301.28,137.95l-1.97.16-2.05-.08-17.15-.16-2.22-.08-1.15.08h-2.3l-2.63.08-2.71-.08h-7.14l-1.31-.08-2.87.08-2.55-.46-.66-.77-.25-1.09-.08-1.47-.16-1.39v-1.24l.08-1.39.08-1.63-.08-2.17.08-2.01v-.93l.08-1.47v-9.7l.08-2.09v-1.55l-.16-3.33v-1.78l-.08-2.71.08-1.47v-3.76l.16-2.09.08-1.94.16-1.32.08-2.17.08-2.81.25-.93.16-.46.58-.54,1.97-.23,1.56.08,3.94-.08h2.71l2.3.31,3.37-.08,5.75.08,5.09-.08h13.45l1.89-.08h3.12l2.55.08,1.97.16.99.54.49,1.09.08,1.55-.25,1.01-.41.62-.99.39-2.14.15-5.01-.15h-2.38l-1.4-.16-11.15-.08h-7.06l-2.22-.08h-2.22l-1.64.08-3.28.08h-1.81l-.99.16h-.9l-1.07.15-.9.62-.41,1.55-.33,2.81v5.55l-.16,1.09.33,1.16,1.15.46h1.07l.82.08,1.56.23h2.46l4.6.16h1.31l1.97.15,2.14-.08h17.48l.9.15.74.31.49,1.09-.16,1.24-.08,1.01-.08.77-.33.54-.66.31-.57.08-1.15-.08h-10.33l-2.46-.08-3.12.08-2.38-.16h-2.05l-1.81-.16h-2.3l-1.97.08-1.23.16-1.97-.16-1.31.08-.49-.08-.74.08-.99.54-.33.62-.08.54-.25,1.78-.08,2.25v5.98l.08,1.01v2.09l-.08,2.79-.16,2.4v1.78l.25.93.08.93.57.7,1.23.39.9.31,1.07-.08,1.73.08,1.4.08,1.07-.15h2.55l.74.08,3.2-.08,2.46-.16h5.99l10.66.23h2.38l1.48.08h7.88l.66.39.66,1.08-.08,1.47-.16,1.16-.49.62-.41.31-.49.08-.9.08-.99.16h-.74l-1.64-.23Z"></path>
        <path d="M506.79,137.95l-1.97.16-2.05-.08-17.15-.16-2.22-.08-1.15.08h-2.3l-2.63.08-2.71-.08h-7.14l-1.31-.08-2.87.08-2.55-.46-.66-.77-.25-1.09-.08-1.47-.16-1.39v-1.24l.08-1.39.08-1.63-.08-2.17.08-2.01v-.93l.08-1.47v-9.7l.08-2.09v-1.55l-.16-3.33v-1.78l-.08-2.71.08-1.47v-3.76l.16-2.09.08-1.94.16-1.32.08-2.17.08-2.81.25-.93.16-.46.58-.54,1.97-.23,1.56.08,3.94-.08h2.71l2.3.31,3.37-.08,5.75.08,5.09-.08h13.45l1.89-.08h3.12l2.55.08,1.97.16.99.54.49,1.09.08,1.55-.25,1.01-.41.62-.99.39-2.14.15-5.01-.15h-2.38l-1.4-.16-11.15-.08h-7.06l-2.22-.08h-2.22l-1.64.08-3.28.08h-1.81l-.99.16h-.9l-1.07.15-.9.62-.41,1.55-.33,2.81v5.55l-.16,1.09.33,1.16,1.15.46h1.07l.82.08,1.56.23h2.46l4.6.16h1.31l1.97.15,2.14-.08h17.48l.9.15.74.31.49,1.09-.16,1.24-.08,1.01-.08.77-.33.54-.66.31-.57.08-1.15-.08h-10.33l-2.46-.08-3.12.08-2.38-.16h-2.05l-1.81-.16h-2.3l-1.97.08-1.23.16-1.97-.16-1.31.08-.49-.08-.74.08-.99.54-.33.62-.08.54-.25,1.78-.08,2.25v5.98l.08,1.01v2.09l-.08,2.79-.16,2.4v1.78l.25.93.08.93.57.7,1.23.39.9.31,1.07-.08,1.73.08,1.4.08,1.07-.15h2.55l.74.08,3.2-.08,2.46-.16h5.99l10.66.23h2.38l1.48.08h7.88l.66.39.66,1.08-.08,1.47-.16,1.16-.49.62-.41.31-.49.08-.9.08-.99.16h-.74l-1.64-.23Z"></path>
        <path d="M146.36,137.48l-.49-1.16-.41-.93-.99-1.71-1.07-1.94-.41-1.47-1.31-2.48-1.23-2.79-.99-1.78-.66-1.24-.9-.7-1.15-.54-1.48-.31-1.4-.08-3.29-.39h-2.46l-1.07-.08h-1.73l-1.31.08-.99-.16h-1.15l-.82.08h-3.12l-1.31.16-2.3.39-1.64.46-.66.54-.66.93-.82,1.39-.58,1.16-.41.77-.9,1.78-.66,1.24-1.23,2.71-.9,1.94-.74,1.39-.9,1.55-.82,1.32-.66.39-.9-.08-1.48-.47-1.48-.54-.74-1.01.08-.78.74-1.7.82-1.78,1.07-1.94.82-1.63,1.31-2.79.9-1.71.58-1.55.99-1.63.49-1.09.74-1.39.74-1.63.58-1.32.74-1.78.74-1.39,1.07-1.78.25-.54.58-1.01.74-1.63.9-1.78.49-1.32.66-1.39,1.23-2.32.74-1.47,1.07-2.01.66-1.16.66-1.32,1.07-1.86.9-2.09.49-1.09.33-.77.49-.85.82-1.39.49-.85,1.15-1.55.58-.39.82-.16.82.16.58.54.9,1.32.82,1.16.58,1.01.66,1.32.82,1.78.82,2.09,1.31,3.41.58,1.09.58,1.63,1.31,2.4.9,2.25.58,1.24.82,1.63,1.15,2.56.82,1.24.49.85.41,1.32.9,1.86.99,2.48,1.15,2.32,1.07,2.09.82,1.86.74,1.71.9,1.78.74,1.71.82,1.47.99,2.25.9,1.78.49,1.01.33,1.16v1.01l-.41.78-1.31.7-1.31.39h-1.15l-.9-.93ZM132.23,114.93h1.15l1.07-.31.33-.23v-.85l-.66-1.47-.41-1.32-.49-1.16-.74-1.86-.82-1.55-.9-2.17-.66-1.32-.9-1.71-.66-1.39-.58-1.24-.41-.93-.74-1.47-.66-1.09-.82-.39-.74.62-.58,1.09-.58,1.16-.41,1.24-.66,1.47-.58.93-.49,1.16-.66,1.32-.74,1.16-.74,1.47-1.07,1.94-.99,2.4-1.07,2.01-.16,1.63.74.46.74.23,1.31.16h1.97l2.38-.16,1.89.16,1.48-.08,1.31.08h1.31l2.05.08,1.15-.08Z"></path>
        <path d="M375.92,138.03l-1.64-.08h-1.73l-1.15-.08h-1.97l-1.64.08h-4.02l-.99-.08h-7.39l-1.07-.16-1.56.16h-1.56l-2.05.08-1.89-.08-1.48.08-2.38-.23-1.97-.39-.33-.7-.16-.93-.08-1.78.25-1.86v-6.51l.08-3.49-.08-1.78-.16-2.79.16-1.55v-1.63l.08-1.47v-11.62l.08-2.48v-2.01l.16-1.55-.08-.77.08-.85v-1.7l.08-2.48-.16-2.4.16-1.86.16-.77.25-.39.66-.31h1.48l2.22.31.82.93v.85l-.08.85.08,1.4-.08,1.94v4.26l-.08,1.71.16,2.32v1.94l-.16.93-.08,1.16v2.17l.08,3.1v3.26l-.08,1.32-.08,2.4-.16,2.09.16,2.48v7.21l-.08,1.4-.08,1.86.08,1.63.49,1.01.49.31.41.16,2.05.23h3.2l2.22-.16,1.31.08,1.31-.08h1.4l1.72.08,2.55-.08,1.48-.08,2.79.08,6.16.08h1.81l1.89.08h.9l.99-.08.74.23.41.23.49.78.08.7-.08,1.09-.08,1.39-.33.39-.49.39-1.64.16-1.81.08-1.23-.15Z"></path>
        <path d="M416.57,137.95l-1.07-.39-.25-.62-.25-.78v-10.54l.08-2.01-.08-1.24v-1.32l.16-1.16.08-.54-.08-.46-.08-.93.08-1.63-.16-1.94.08-1.7v-1.78l.16-1.94v-8.52l.08-3.02-.16-3.25.08-2.32v-2.01l.16-2.33-.08-1.47.08-1.16.41-.93.82-.31,1.15-.15,1.15.15.99.08.74.39.25.54v1.39l.08,1.55v1.32l.16,2.09.08,2.09-.16,1.16v.85l-.08,2.09-.08,1.7.08,2.01.25,1.63v8.91l-.25,1.71v3.02l.16,1.55-.16,2.33v3.41l.08,2.32-.08,1.47-.08,1.86v1.08l.08,1.71v2.09l-.08,1.47v1.39l-.49,1.01-1.15.31h-1.31l-1.4-.23Z"></path>
        <path d="M546.29,138.1l-.99-.54-.49-1.09-.16-1.86-.08-3.1v-5.5l.08-1.63v-2.4l-.16-1.78v-.77l.08-1.09-.33-2.01.08-2.48v-1.86l.08-1.71.08-1.47-.08-2.48.08-2.94v-4.11l.08-2.33v-1.32l-.08-2.01.25-2.4v-3.18l.08-2.25-.08-1.24.25-.54.74-.54,1.73-.31,2.22.16h2.22l1.56-.08h2.14l1.64-.08,2.3.08,1.23-.08,1.97.08,1.73-.08.58.08,1.31-.08h2.05l1.48-.16,1.97.16h6.32l1.89.31,1.31.31,1.64.62,1.73.77,2.14,1.55,1.48,1.63.82,1.08.99,1.63.99,2.48.66,2.4.33,2.48v2.56l-.25,1.63-.57,2.01-.49,1.24-.66,1.24-.74,1.24-1.48,1.86-1.31,1.16-2.13,1.39-2.71,1.09-1.73.54-1.23.16-1.4.08-.82.23.49,1.32.74,1.09.99,1.32,1.81,2.32,1.07,1.32.66.78,1.48,1.94,2.14,2.48,2.46,3.33,1.81,2.32,1.4,1.94-.08.85-.33.54-1.15.62-1.15.78-.49.23-.41.08-.66-.15-1.15-1.01-1.72-1.94-1.89-2.17-1.64-2.48-1.56-1.78-1.07-1.32-1.4-1.63-.9-1.16-.66-.78-.9-1.24-1.07-1.32-.66-1.08-.66-.78-1.23-1.63-.9-1.08-1.81-1.4-1.48-.39-4.43-.15-1.48-.16-4.19.08h-2.22l-1.4.08-.82.23-.99.54-.41,1.63-.08,2.48v3.33l.08,3.1-.08,2.71.16,2.48-.08,1.94.08,1.47-.08,1.63-.25,1.16-.58.54-1.89.31-1.73-.08ZM560.99,109.59l2.63.08h4.35l7.23-.46,4.03-.31,2.38-.7,1.56-1.16,1.07-1.16.66-1.32.58-1.47.16-1.01.25-.85.08-1.24v-1.94l-.16-1.39-.08-1.16-.41-1.39-.66-1.32-1.15-1.4-1.31-1.16-2.46-1.09-2.71-.54-4.03-.23h-2.71l-2.3-.16-4.93-.16-1.64.08-4.52.31-2.63-.08h-1.56l-1.64.31-.25.39-.16.85-.16,1.32-.08,1.63.08,2.33.08,2.79v4.57l-.16,2.56.16,1.63.16,1.24.66,1.01,1.97.23,1.31.23,1.15.08,1.81-.08,1.4.23,1.97-.08Z"></path>
      </g>
    </g>
  </g>
</svg>