<?xml version="1.0"?>
<svg id="Warstwa_3" data-name="Warstwa 3" xmlns="http://www.w3.org/2000/svg" viewBox="0 0 549.68 363.1" fill="#efebe4">
  <g id="Warstwa_1" data-name="Warstwa 1">
    <path d="M415.77,159.3c-1.12-1.83-3.93-3.11-6.85-3.11-1.85,0-5.32.53-7.66,4.05-2.83,4.45-4.66,13.57-4.66,23.23,0,21.31,7.01,39,20.28,51.17,12.08,11.08,28.96,17.18,47.54,17.18,42.44,0,85.27-30.42,85.27-98.36C549.68,71.71,462.44,0,362.97,0c-29.27,0-58.82,6.4-85.47,18.52l-2.66,1.21-2.66-1.21C245.53,6.4,215.98,0,186.71,0,87.25,0,0,71.71,0,153.45c0,67.95,42.82,98.36,85.27,98.36,18.58,0,35.46-6.1,47.54-17.18,13.27-12.17,20.28-29.86,20.28-51.17,0-9.66-1.83-18.77-4.66-23.23-2.34-3.52-5.81-4.05-7.66-4.05-2.91,0-5.73,1.28-6.85,3.11-.28.45-1.12,1.83.4,4.86,1.56,2.67,5.37,10.58,5.37,23.13,0,32.06-20.72,52.77-52.78,52.77-35.53,0-73.5-22.61-73.5-86.05,0-37.66,19.06-73.42,53.65-100.7C100.09,27.25,144.1,12.32,187.8,12.32c19.75,0,39.23,2.92,57.91,8.69l16.78,5.18-14.41,10.04c-42.8,29.84-67.35,72.37-67.35,116.68,0,33.83,15.16,67.95,40.54,91.26l7.96,7.36-2.97,5.8c-34.13,66.75-67.53,93.97-115.3,93.97-24.05,0-43.8-5.8-62.16-18.27-2.17-1.44-4.23-2.18-6.09-2.18-3.67,0-5.94,3.09-6.77,5.74-.08.27-.19.56-.3.87-.69,1.87-1.56,4.19,4.83,8.61,15.52,10.82,39.99,17.03,67.13,17.03,9.51,0,29.31,0,49.65-9.6,45.38-21.41,66.56-65.67,75.6-84.57,1.23-2.57,2.25-4.7,3.08-6.28l1.58-2.97,5.68,4.46c3.8,3.22,14.71,9.63,30.33,10.25h0c.15.01.29.02.44.02.15,0,.29.02.44.02.14,0,.28,0,.42,0,.14,0,.28.01.42,0,.15,0,.29-.02.44-.02.15,0,.29,0,.44,0h0c15.62-.63,26.53-7.04,30.33-10.26l5.68-4.46,1.58,2.97c.83,1.58,1.85,3.71,3.09,6.28,9.04,18.9,30.22,63.15,75.6,84.57,20.34,9.6,40.14,9.6,49.65,9.6,27.15,0,51.61-6.2,67.13-17.03,6.39-4.42,5.52-6.74,4.83-8.61-.12-.31-.22-.6-.3-.87-.83-2.65-3.1-5.74-6.77-5.74-1.86,0-3.92.74-6.09,2.18-18.36,12.46-38.11,18.27-62.16,18.27-47.77,0-81.17-27.22-115.3-93.97l-2.97-5.8,7.96-7.36c25.38-23.31,40.54-57.43,40.54-91.26,0-44.31-24.55-86.84-67.35-116.68l-14.41-10.04,16.78-5.18c18.68-5.77,38.16-8.69,57.91-8.69,43.7,0,87.72,14.94,120.75,40.98,34.59,27.28,53.65,63.05,53.65,100.7,0,63.45-37.97,86.05-73.5,86.05-32.06,0-52.78-20.71-52.78-52.77,0-12.55,3.81-20.46,5.37-23.13,1.52-3.02.68-4.4.4-4.86ZM232.23,243.29l-10.76-13.1c-17.07-20.68-28.54-52.39-28.54-78.91,0-9.21,1.32-19.3,4.04-30.87l3.11-10.69,10.33,2.41c22.18,4.51,40.57,19.37,56.11,45.39l2.59,4.33-4.2,6.33c-2.22,4.14-4.51,8.6-6.67,13.05l-26.02,62.08ZM305.45,249.71c-1.45,1.25-2.37,1.79-3.07,2.28-4.44,3.16-9.46,6.73-15.37,8.64-3.93,1.27-8.02,1.94-12.17,2.09-4.15-.14-8.24-.82-12.17-2.09-5.91-1.91-10.93-5.48-15.37-8.64-.7-.49-1.62-1.03-3.07-2.28l-1.48-1.46.74-1.53c.24-.5.5-1.29.77-2.09.35-1.03.72-2.07,1.03-2.72l18.47-45.59,11.07-22.02,11.07,22.02,18.47,45.59c.32.66.68,1.69,1.03,2.72.27.79.53,1.59.77,2.09l.74,1.53-1.48,1.46ZM352.71,120.4c2.72,11.57,4.04,21.67,4.04,30.87,0,26.52-11.47,58.23-28.54,78.91l-10.76,13.1-26.02-62.08c-2.16-4.45-4.45-8.91-6.67-13.05l-4.2-6.33,2.59-4.33c15.55-26.02,33.93-40.87,56.11-45.39l10.33-2.41,3.11,10.69ZM336.87,90.13l5.86,8.35-12.02,3.13c-17.71,4.76-33.7,16.16-49.84,38.13l-6.03,8.21-6.03-8.21c-16.14-21.98-32.12-33.37-49.84-38.13l-12.02-3.13,5.86-8.35c13.2-21.99,33.53-40.9,58.8-54.69l3.22-1.76,3.22,1.76c25.27,13.79,45.6,32.7,58.8,54.69Z"></path>
  </g>
</svg>