<?xml version="1.0"?>
<svg id="Warstwa_2" data-name="Warstwa 2" xmlns="http://www.w3.org/2000/svg" viewBox="0 0 546.96 362.06" fill="#304b3d">
  <g id="Warstwa_1" data-name="Warstwa 1">
    <path d="M439.2,362.06c-9.51,0-29.3,0-49.68-9.62-45.33-21.39-66.44-65.5-75.45-84.33-1.23-2.56-2.22-4.64-3.04-6.18l-.93-1.77-4.58,3.59c-4.1,3.47-14.91,9.49-29.63,10.34v.05l-1.53.02-.46-1.09.02,1.12h-.88l-.42-1.14-.02,1.12-1.53-.07c-14.72-.85-25.53-6.87-29.66-10.37l-4.55-3.57-.94,1.77c-.79,1.49-1.75,3.49-2.9,5.9l-.13.28c-9.01,18.84-30.12,62.94-75.45,84.33-20.38,9.62-40.17,9.62-49.68,9.62-27.13,0-51.61-6.22-67.17-17.07-6.49-4.5-6.16-7.22-5.2-9.84.12-.31.21-.57.29-.8.93-2.99,3.53-6.48,7.78-6.48,2.06,0,4.3.79,6.65,2.35,18.01,12.23,37.38,17.92,60.98,17.92,46.85,0,79.66-26.8,113.26-92.51l2.55-5-7.27-6.72c-25.38-23.3-40.53-57.42-40.53-91.25,0-44.28,24.5-86.76,67.22-116.55l12.4-8.64-14.44-4.46c-18.4-5.68-37.6-8.56-57.06-8.56-43.07,0-86.43,14.72-118.97,40.37-34.01,26.82-52.74,61.95-52.74,98.91,0,62.05,37.05,84.16,71.72,84.16,31.09,0,51.19-20.09,51.19-51.17,0-12.53-3.96-20.28-5.17-22.36-1.82-3.62-.74-5.38-.38-5.96,1.32-2.16,4.43-3.62,7.74-3.62,2.06,0,5.91.59,8.53,4.52,2.93,4.6,4.81,13.87,4.81,23.64,0,21.44-7.07,39.26-20.45,51.53-12.17,11.17-29.17,17.32-47.87,17.32C43,251.77,0,221.29,0,153.18,0,71.58,86.98,0,186.14,0c29.16,0,58.61,6.38,85.16,18.45l2.18.99,2.18-.99C302.21,6.38,331.66,0,360.82,0c99.16,0,186.14,71.58,186.14,153.18,0,68.11-43,98.59-85.62,98.59-18.69,0-35.69-6.15-47.87-17.32-13.38-12.27-20.45-30.09-20.45-51.53,0-9.77,1.88-19.04,4.8-23.62,2.63-3.95,6.48-4.54,8.54-4.54,3.31,0,6.42,1.46,7.74,3.62.36.58,1.43,2.35-.35,5.9-1.25,2.14-5.21,9.88-5.21,22.42,0,31.08,20.09,51.17,51.19,51.17,34.67,0,71.72-22.11,71.72-84.16,0-36.97-18.73-72.1-52.74-98.91-32.54-25.66-75.9-40.37-118.97-40.37-19.46,0-38.66,2.88-57.06,8.56l-14.44,4.46,12.4,8.64c42.72,29.78,67.22,72.26,67.22,116.55,0,33.83-15.15,67.95-40.53,91.26l-7.27,6.71,2.56,5c33.6,65.71,66.41,92.51,113.26,92.51,23.6,0,42.97-5.69,60.97-17.91,2.36-1.56,4.6-2.36,6.66-2.36,4.25,0,6.84,3.49,7.77,6.48.07.24.17.49.27.77.98,2.65,1.32,5.37-5.19,9.88-15.55,10.85-40.03,17.07-67.16,17.07ZM310.82,256.75l2.19,4.13c.83,1.56,1.84,3.67,3.06,6.21,8.93,18.67,29.79,62.27,74.41,83.32,19.93,9.41,39.38,9.41,48.73,9.41,26.68,0,50.69-6.08,65.89-16.67,5.62-3.89,4.96-5.66,4.38-7.23-.13-.35-.24-.65-.32-.92-.7-2.26-2.6-4.9-5.64-4.9-1.62,0-3.44.66-5.42,1.98-18.38,12.47-38.15,18.29-62.22,18.29-47.82,0-81.21-27.15-115.26-93.73l-3.33-6.5,8.51-7.87c24.93-22.9,39.81-56.4,39.81-89.61,0-43.54-24.15-85.35-66.26-114.71l-16.16-11.26,18.82-5.81c18.61-5.75,38.03-8.66,57.71-8.66,43.56,0,87.43,14.89,120.35,40.85,34.56,27.26,53.59,63.01,53.59,100.67,0,63.7-38.2,86.39-73.95,86.39-32.45,0-53.42-20.96-53.42-53.41,0-12.74,3.83-20.67,5.48-23.49,1.19-2.38.6-3.35.4-3.66h0c-.9-1.48-3.35-2.55-5.83-2.55-1.61,0-4.62.46-6.66,3.52-2.69,4.22-4.43,13.02-4.43,22.4,0,20.79,6.82,38.04,19.73,49.88,11.76,10.79,28.22,16.73,46.35,16.73,41.5,0,83.38-29.8,83.38-96.36,0-80.41-85.94-150.95-183.91-150.95-28.84,0-57.97,6.31-84.23,18.25l-3.1,1.41-3.1-1.42c-26.26-11.93-55.39-18.24-84.23-18.24C88.17,2.24,2.24,72.77,2.24,153.18c0,66.56,41.88,96.36,83.38,96.36,18.13,0,34.6-5.94,46.35-16.73,12.91-11.84,19.73-29.09,19.73-49.88,0-9.37-1.74-18.17-4.45-22.42-2.03-3.04-5.04-3.5-6.65-3.5-2.48,0-4.93,1.07-5.83,2.55-.2.32-.79,1.29.44,3.73,1.61,2.76,5.44,10.69,5.44,23.42,0,32.44-20.97,53.41-53.42,53.41-35.75,0-73.95-22.7-73.95-86.39,0-37.66,19.03-73.41,53.59-100.67C99.8,27.1,143.67,12.21,187.23,12.21c19.68,0,39.1,2.91,57.72,8.66l18.82,5.81-16.16,11.26c-42.11,29.36-66.26,71.17-66.26,114.71,0,33.22,14.88,66.72,39.81,89.61l8.51,7.87-3.32,6.5c-34.04,66.58-67.43,93.73-115.26,93.73-24.07,0-43.84-5.81-62.23-18.29-1.97-1.31-3.79-1.97-5.41-1.97-3.04,0-4.94,2.64-5.64,4.9-.08.27-.2.57-.31.88-.59,1.6-1.25,3.38,4.36,7.26,15.19,10.6,39.21,16.68,65.89,16.68,9.35,0,28.8,0,48.73-9.41,44.61-21.05,65.48-64.66,74.39-83.28l.13-.28c1.17-2.44,2.15-4.47,2.94-5.98l2.19-4.13,6.68,5.24c4.05,3.42,14.75,9.33,29.41,9.91l1,.04h.23s.2.5.2.5v-.49l1.07-.06c14.66-.58,25.36-6.49,29.38-9.89l6.72-5.27ZM273.88,273.04v.03s0-.03,0-.03ZM273.52,262.58c-4.38-.15-8.54-.86-12.44-2.12-6.02-1.94-11.07-5.54-15.53-8.71l-.51-.35c-.62-.42-1.47-.99-2.62-1.98l-2.09-2.06,1.08-2.24c.2-.4.4-1.02.62-1.66l.1-.28c.37-1.07.75-2.14,1.07-2.82l18.27-45.12,12-23.89,11.96,23.81,18.34,45.26c.3.61.68,1.68,1.05,2.75l.1.28c.22.64.43,1.26.62,1.66l1.09,2.24-2.09,2.06c-1.15,1-2.01,1.57-2.63,1.99l-.49.34c-4.46,3.17-9.52,6.77-15.53,8.71-3.9,1.26-8.06,1.97-12.37,2.12ZM243.04,246.89l.9.89c1,.85,1.76,1.37,2.35,1.77l.55.38c4.33,3.08,9.24,6.57,14.93,8.41,3.7,1.19,7.66,1.87,11.75,2.01,4.02-.14,7.98-.82,11.68-2.01,5.69-1.84,10.6-5.33,14.93-8.41l.54-.37c.6-.4,1.35-.91,2.39-1.8l.87-.86-.39-.8c-.23-.47-.47-1.18-.73-1.92l-.09-.28c-.33-.98-.68-1.95-.98-2.57l-18.33-45.25-9.93-19.75-9.97,19.83-18.26,45.1c-.33.68-.67,1.66-1,2.64l-.09.27c-.25.74-.5,1.45-.72,1.92l-.39.8ZM315.39,244.35l-26.5-63.23c-2.05-4.21-4.33-8.67-6.56-12.83l-4.5-6.77,2.92-4.9c15.58-26.07,34.01-40.95,56.34-45.5l11.24-2.62,3.4,11.67c2.71,11.55,4.03,21.64,4.03,30.85,0,26.52-11.47,58.24-28.54,78.91l-11.84,14.42ZM280.47,161.46l3.77,5.69c2.3,4.28,4.59,8.76,6.68,13.06l25.1,59.86,9.48-11.55c16.77-20.31,28.03-51.45,28.03-77.49,0-9.03-1.3-18.94-3.97-30.31l-2.78-9.55-9.21,2.15c-21.72,4.42-39.67,18.96-54.9,44.46l-2.2,3.69ZM231.56,244.35l-11.84-14.42c-17.07-20.68-28.54-52.39-28.54-78.91,0-9.21,1.32-19.3,4.04-30.85l3.4-11.67,11.27,2.62c22.31,4.54,40.74,19.42,56.31,45.49l2.92,4.9-4.55,6.86c-2.2,4.11-4.48,8.57-6.54,12.8l-26.48,63.17ZM200.18,111.16l-2.79,9.58c-2.66,11.32-3.96,21.24-3.96,30.28,0,26.04,11.26,57.18,28.03,77.49l9.48,11.55,25.07-59.81c2.09-4.32,4.38-8.8,6.66-13.03l3.82-5.77-2.2-3.69c-15.23-25.5-33.18-40.04-54.87-44.46l-9.23-2.15ZM273.48,149.62l-6.87-9.36c-15.15-20.62-30.65-32.5-48.78-37.37l-13.46-3.5,6.73-9.59c13.14-21.9,33.43-40.78,58.65-54.53l3.73-2.03,3.73,2.03c25.2,13.75,45.49,32.62,58.67,54.57l6.71,9.56-13.47,3.51c-18.13,4.87-33.62,16.74-48.76,37.37l-6.88,9.36ZM208.05,98.03l10.35,2.69c18.66,5.01,34.54,17.15,50,38.21l5.07,6.91,5.08-6.91c15.46-21.05,31.35-33.2,49.99-38.21l10.37-2.69-4.93-7.02c-12.98-21.62-32.98-40.22-57.85-53.79l-2.66-1.45-2.66,1.45c-24.87,13.57-44.87,32.17-57.85,53.79l-4.92,7.02Z"></path>
  </g>
</svg>